<svg width="312" height="268" viewBox="0 0 312 268" fill="none" xmlns="http://www.w3.org/2000/svg">
<circle cx="59.2687" cy="26.2687" r="24.7687" fill="#A4BE5C" stroke="black" stroke-width="3"/>
<circle cx="83.1661" cy="134.437" r="24.7687" fill="#7CB0D2" stroke="black" stroke-width="3"/>
<circle cx="156.117" cy="75.3217" r="24.7687" fill="#9F93C2" stroke="black" stroke-width="3"/>
<circle cx="251.707" cy="26.2687" r="24.7687" fill="#ED815E" stroke="black" stroke-width="3"/>
<line x1="101.709" y1="118.814" x2="137.104" y2="89.7254" stroke="black" stroke-width="3"/>
<path d="M178.162 64.4303L230.298 38.2264" stroke="black" stroke-width="3"/>
<path d="M80.677 37.4998L134.061 65.8261" stroke="black" stroke-width="3"/>
<path d="M63.9721 49.4839L78.4982 111.221" stroke="black" stroke-width="3"/>
<path d="M56.6585 185.182V247H49.4142L15.7281 198.463H15.1244V247H7.63863V185.182H14.8829L48.6898 233.839H49.2935V185.182H56.6585ZM99.8905 228.044V200.636H107.014V247H99.8905V239.152H99.4075C98.3209 241.506 96.6305 243.509 94.3365 245.159C92.0425 246.789 89.1448 247.604 85.6433 247.604C82.7456 247.604 80.1698 246.97 77.9161 245.702C75.6623 244.414 73.8914 242.482 72.6036 239.907C71.3157 237.311 70.6717 234.041 70.6717 230.097V200.636H77.7953V229.614C77.7953 232.994 78.7411 235.691 80.6327 237.703C82.5444 239.715 84.9793 240.722 87.9374 240.722C89.7082 240.722 91.5092 240.269 93.3404 239.363C95.1917 238.458 96.7412 237.069 97.9889 235.198C99.2566 233.326 99.8905 230.942 99.8905 228.044ZM121.027 185.182H129.962L150.97 236.496H151.695L172.703 185.182H181.638V247H174.635V200.033H174.032L154.713 247H147.952L128.634 200.033H128.03V247H121.027V185.182ZM195.682 247V200.636H202.805V247H195.682ZM199.304 192.909C197.915 192.909 196.718 192.436 195.712 191.49C194.726 190.545 194.233 189.408 194.233 188.08C194.233 186.751 194.726 185.614 195.712 184.669C196.718 183.723 197.915 183.25 199.304 183.25C200.692 183.25 201.879 183.723 202.865 184.669C203.872 185.614 204.375 186.751 204.375 188.08C204.375 189.408 203.872 190.545 202.865 191.49C201.879 192.436 200.692 192.909 199.304 192.909ZM222.976 219.109V247H215.852V200.636H222.735V207.881H223.338C224.425 205.526 226.075 203.635 228.288 202.206C230.502 200.757 233.36 200.033 236.861 200.033C240 200.033 242.747 200.677 245.101 201.964C247.456 203.232 249.287 205.164 250.595 207.76C251.903 210.336 252.557 213.596 252.557 217.54V247H245.433V218.023C245.433 214.38 244.488 211.543 242.596 209.511C240.704 207.458 238.109 206.432 234.808 206.432C232.534 206.432 230.502 206.925 228.711 207.911C226.94 208.897 225.542 210.336 224.515 212.227C223.489 214.119 222.976 216.413 222.976 219.109ZM283.081 247.966C279.218 247.966 275.807 246.99 272.849 245.038C269.89 243.066 267.576 240.289 265.906 236.707C264.236 233.105 263.401 228.849 263.401 223.939C263.401 219.069 264.236 214.843 265.906 211.261C267.576 207.679 269.901 204.913 272.879 202.961C275.857 201.009 279.298 200.033 283.202 200.033C286.22 200.033 288.605 200.536 290.356 201.542C292.127 202.528 293.475 203.655 294.4 204.923C295.346 206.17 296.081 207.196 296.604 208.001H297.208V185.182H304.331V247H297.449V239.876H296.604C296.081 240.722 295.336 241.788 294.37 243.076C293.404 244.344 292.026 245.481 290.235 246.487C288.444 247.473 286.059 247.966 283.081 247.966ZM284.047 241.567C286.905 241.567 289.319 240.822 291.291 239.333C293.263 237.824 294.763 235.741 295.789 233.085C296.815 230.408 297.328 227.32 297.328 223.818C297.328 220.357 296.825 217.328 295.819 214.733C294.813 212.117 293.324 210.084 291.352 208.635C289.38 207.166 286.945 206.432 284.047 206.432C281.029 206.432 278.513 207.207 276.501 208.756C274.509 210.285 273.01 212.368 272.003 215.004C271.017 217.62 270.524 220.558 270.524 223.818C270.524 227.118 271.027 230.117 272.034 232.813C273.06 235.49 274.569 237.623 276.561 239.212C278.574 240.782 281.069 241.567 284.047 241.567Z" fill="white"/>
</svg>
