<svg width="762" height="885" viewBox="0 0 762 885" fill="none" xmlns="http://www.w3.org/2000/svg">
<path d="M480.5 442.5C480.5 563.903 392.13 674.126 248.567 754.084C105.053 834.015 -93.3113 883.5 -312.5 883.5C-531.689 883.5 -730.053 834.015 -873.566 754.084C-1017.13 674.126 -1105.5 563.903 -1105.5 442.5C-1105.5 321.097 -1017.13 210.874 -873.566 130.916C-730.053 50.9851 -531.689 1.5 -312.5 1.5C-93.3113 1.5 105.053 50.9851 248.567 130.916C392.13 210.874 480.5 321.097 480.5 442.5Z" stroke="url(#paint0_linear_73_430)" stroke-width="3"/>
<g filter="url(#filter0_df_73_430)">
<circle cx="435.705" cy="587.064" r="66" transform="rotate(-20.1635 435.705 587.064)" fill="url(#paint1_linear_73_430)"/>
</g>
<g filter="url(#filter1_f_73_430)">
<circle cx="524.706" cy="221.064" r="34" transform="rotate(71.413 524.706 221.064)" fill="url(#paint2_linear_73_430)"/>
</g>
<g filter="url(#filter2_b_73_430)">
<circle cx="558.205" cy="404.564" r="203.5" fill="url(#paint3_linear_73_430)"/>
<circle cx="558.205" cy="404.564" r="203" stroke="url(#paint4_linear_73_430)" stroke-opacity="0.58"/>
</g>
<defs>
<filter id="filter0_df_73_430" x="351.687" y="503.046" width="168.036" height="168.036" filterUnits="userSpaceOnUse" color-interpolation-filters="sRGB">
<feFlood flood-opacity="0" result="BackgroundImageFix"/>
<feColorMatrix in="SourceAlpha" type="matrix" values="0 0 0 0 0 0 0 0 0 0 0 0 0 0 0 0 0 0 127 0" result="hardAlpha"/>
<feOffset dy="4"/>
<feGaussianBlur stdDeviation="2"/>
<feComposite in2="hardAlpha" operator="out"/>
<feColorMatrix type="matrix" values="0 0 0 0 0 0 0 0 0 0 0 0 0 0 0 0 0 0 0.25 0"/>
<feBlend mode="normal" in2="BackgroundImageFix" result="effect1_dropShadow_73_430"/>
<feBlend mode="normal" in="SourceGraphic" in2="effect1_dropShadow_73_430" result="shape"/>
<feGaussianBlur stdDeviation="9" result="effect2_foregroundBlur_73_430"/>
</filter>
<filter id="filter1_f_73_430" x="471.696" y="168.055" width="106.018" height="106.019" filterUnits="userSpaceOnUse" color-interpolation-filters="sRGB">
<feFlood flood-opacity="0" result="BackgroundImageFix"/>
<feBlend mode="normal" in="SourceGraphic" in2="BackgroundImageFix" result="shape"/>
<feGaussianBlur stdDeviation="9.5" result="effect1_foregroundBlur_73_430"/>
</filter>
<filter id="filter2_b_73_430" x="307.705" y="154.064" width="501" height="501" filterUnits="userSpaceOnUse" color-interpolation-filters="sRGB">
<feFlood flood-opacity="0" result="BackgroundImageFix"/>
<feGaussianBlur in="BackgroundImageFix" stdDeviation="23.5"/>
<feComposite in2="SourceAlpha" operator="in" result="effect1_backgroundBlur_73_430"/>
<feBlend mode="normal" in="SourceGraphic" in2="effect1_backgroundBlur_73_430" result="shape"/>
</filter>
<linearGradient id="paint0_linear_73_430" x1="-1.49998" y1="57.5" x2="-1.49997" y2="824.5" gradientUnits="userSpaceOnUse">
<stop stop-color="white" stop-opacity="0"/>
<stop offset="0.494792" stop-color="white"/>
<stop offset="1" stop-color="white" stop-opacity="0"/>
</linearGradient>
<linearGradient id="paint1_linear_73_430" x1="435.705" y1="521.064" x2="435.705" y2="653.064" gradientUnits="userSpaceOnUse">
<stop stop-color="#8FC87D"/>
<stop offset="1" stop-color="#EFD13A"/>
</linearGradient>
<linearGradient id="paint2_linear_73_430" x1="524.706" y1="187.064" x2="524.706" y2="255.064" gradientUnits="userSpaceOnUse">
<stop stop-color="#8FC87D"/>
<stop offset="1" stop-color="#EFD13A"/>
</linearGradient>
<linearGradient id="paint3_linear_73_430" x1="419.205" y1="260.564" x2="691.705" y2="553.064" gradientUnits="userSpaceOnUse">
<stop stop-color="white" stop-opacity="0.07"/>
<stop offset="1" stop-color="white" stop-opacity="0"/>
</linearGradient>
<linearGradient id="paint4_linear_73_430" x1="429.205" y1="261.564" x2="695.205" y2="560.564" gradientUnits="userSpaceOnUse">
<stop stop-color="white" stop-opacity="0"/>
<stop offset="1" stop-color="white" stop-opacity="0.12"/>
</linearGradient>
</defs>
</svg>
