<svg width="533" height="498" viewBox="0 0 533 498" fill="none" xmlns="http://www.w3.org/2000/svg">
<g clip-path="url(#clip0_73_646)">
<path d="M251.282 4.15459L234.972 13.0604L34.0327 122.782L17.7229 131.687C9.80895 136.02 3.93554 143.318 1.39126 151.979C-1.15301 160.641 -0.160358 169.958 4.15144 177.888L153.786 452.346C158.116 460.266 165.408 466.144 174.062 468.69C182.717 471.236 192.028 470.243 199.951 465.928L199.993 465.905L433.468 338.418L433.51 338.395C441.424 334.062 447.297 326.764 449.842 318.103C452.386 309.442 451.393 300.124 447.081 292.194L297.447 17.7367C293.117 9.81657 285.825 3.93861 277.17 1.39235C268.516 -1.1539 259.205 -0.160507 251.282 4.15459Z" fill="#F2F2F2"/>
<path d="M255.973 12.7597L236.655 23.308L41.7318 129.745L22.4144 140.293C16.7786 143.378 12.596 148.575 10.7842 154.743C8.97232 160.911 9.67921 167.546 12.7498 173.193L162.384 447.651C165.468 453.291 170.66 457.477 176.824 459.29C182.987 461.103 189.617 460.396 195.26 457.323L195.302 457.3L428.776 329.813L428.819 329.79C434.454 326.704 438.637 321.507 440.449 315.34C442.26 309.172 441.553 302.536 438.483 296.889L288.848 22.4319C285.765 16.7919 280.572 12.606 274.409 10.7928C268.246 8.97951 261.616 9.68689 255.973 12.7597Z" fill="white"/>
<path d="M259.194 97.9514L172.117 145.499C170.798 146.219 169.247 146.386 167.805 145.962C166.363 145.537 165.149 144.558 164.429 143.237C163.71 141.917 163.543 140.365 163.967 138.922C164.391 137.479 165.37 136.264 166.689 135.544L253.766 87.996C255.085 87.2757 256.636 87.1093 258.078 87.5334C259.52 87.9576 260.734 88.9376 261.454 90.2577C262.174 91.5779 262.34 93.1302 261.916 94.573C261.492 96.0158 260.513 97.2311 259.194 97.9514H259.194Z" fill="#F2F2F2"/>
<path d="M288.871 103.548L181.276 162.299C179.957 163.019 178.406 163.186 176.965 162.762C175.523 162.337 174.308 161.358 173.589 160.037C172.869 158.717 172.703 157.165 173.127 155.722C173.55 154.279 174.53 153.064 175.849 152.344L283.443 93.5927C284.096 93.236 284.813 93.0116 285.553 92.9322C286.293 92.8528 287.041 92.9201 287.755 93.1301C288.469 93.3401 289.134 93.6888 289.714 94.1563C290.293 94.6237 290.774 95.2007 291.131 95.8544C291.487 96.5081 291.711 97.2256 291.791 97.966C291.87 98.7064 291.803 99.4552 291.593 100.17C291.383 100.884 291.035 101.55 290.568 102.13C290.1 102.709 289.524 103.191 288.871 103.548H288.871Z" fill="#F2F2F2"/>
<path d="M136.319 125.707L56.039 169.543C55.4071 169.888 54.938 170.47 54.735 171.162C54.5319 171.853 54.6115 172.597 54.9562 173.229L89.1414 235.931C89.4864 236.564 90.0682 237.033 90.759 237.236C91.4498 237.44 92.1929 237.36 92.825 237.015L173.105 193.179C173.737 192.834 174.206 192.251 174.409 191.56C174.612 190.869 174.532 190.125 174.188 189.493L140.003 126.791C139.658 126.158 139.076 125.689 138.385 125.485C137.694 125.282 136.951 125.362 136.319 125.707Z" fill="#F2F2F2"/>
<path d="M302.4 177.51L184.291 242.003C183.637 242.359 182.92 242.584 182.181 242.663C181.441 242.742 180.693 242.675 179.979 242.465C179.265 242.255 178.599 241.906 178.02 241.439C177.441 240.971 176.959 240.394 176.603 239.741C176.246 239.087 176.022 238.37 175.943 237.629C175.864 236.889 175.931 236.14 176.141 235.425C176.351 234.711 176.699 234.045 177.166 233.465C177.633 232.886 178.21 232.404 178.863 232.047L296.972 167.555C298.291 166.834 299.842 166.668 301.284 167.092C302.726 167.516 303.94 168.496 304.66 169.816C305.379 171.137 305.546 172.689 305.122 174.132C304.698 175.574 303.719 176.79 302.4 177.51H302.4Z" fill="#F2F2F2"/>
<path d="M332.076 183.107L193.45 258.802C192.131 259.523 190.58 259.689 189.138 259.265C187.696 258.841 186.482 257.861 185.762 256.541C185.042 255.221 184.876 253.668 185.3 252.225C185.724 250.783 186.703 249.567 188.022 248.847L326.648 173.151C327.968 172.431 329.519 172.265 330.96 172.689C332.402 173.113 333.616 174.093 334.336 175.413C335.056 176.733 335.222 178.285 334.798 179.728C334.374 181.171 333.395 182.386 332.076 183.107H332.076Z" fill="#F2F2F2"/>
<path d="M139.309 294.82C152.585 294.82 163.347 284.049 163.347 270.763C163.347 257.477 152.585 246.706 139.309 246.706C126.033 246.706 115.271 257.477 115.271 270.763C115.271 284.049 126.033 294.82 139.309 294.82Z" fill="#F2F2F2"/>
<path d="M498.975 117.244H232.913C223.892 117.254 215.243 120.845 208.864 127.229C202.486 133.612 198.898 142.268 198.887 151.296V463.949C198.898 472.977 202.486 481.632 208.864 488.015C215.243 494.399 223.892 497.99 232.913 498H498.975C507.996 497.99 516.644 494.399 523.023 488.015C529.402 481.632 532.99 472.977 533 463.949V151.296C532.99 142.268 529.402 133.612 523.023 127.229C516.644 120.845 507.996 117.254 498.975 117.244Z" fill="#E6E6E6"/>
<path d="M498.975 127.047H232.913C226.489 127.054 220.33 129.611 215.787 134.157C211.245 138.703 208.69 144.867 208.683 151.296V463.949C208.69 470.378 211.245 476.541 215.787 481.087C220.33 485.633 226.489 488.19 232.913 488.197H498.975C505.399 488.19 511.558 485.633 516.1 481.087C520.643 476.541 523.198 470.378 523.205 463.949V151.296C523.198 144.867 520.643 138.703 516.1 134.157C511.558 129.611 505.399 127.054 498.975 127.047Z" fill="white"/>
<path d="M461.03 203.375H361.835C360.332 203.375 358.891 202.777 357.828 201.714C356.766 200.65 356.169 199.208 356.169 197.704C356.169 196.2 356.766 194.758 357.828 193.695C358.891 192.631 360.332 192.034 361.835 192.034H461.03C461.775 192.033 462.512 192.179 463.2 192.464C463.889 192.748 464.514 193.166 465.041 193.692C465.567 194.219 465.985 194.844 466.271 195.533C466.556 196.221 466.702 196.959 466.702 197.704C466.702 198.449 466.556 199.187 466.271 199.876C465.985 200.564 465.567 201.189 465.041 201.716C464.514 202.243 463.889 202.66 463.2 202.945C462.512 203.229 461.775 203.375 461.03 203.375Z" fill="#F9A826"/>
<path d="M484.403 222.513H361.835C360.332 222.513 358.891 221.915 357.828 220.852C356.766 219.789 356.169 218.346 356.169 216.842C356.169 215.338 356.766 213.896 357.828 212.833C358.891 211.769 360.332 211.172 361.835 211.172H484.403C485.905 211.172 487.347 211.769 488.409 212.833C489.472 213.896 490.069 215.338 490.069 216.842C490.069 218.346 489.472 219.789 488.409 220.852C487.347 221.915 485.905 222.513 484.403 222.513Z" fill="#F9A826"/>
<path d="M339.883 168.841H248.43C247.71 168.841 247.02 169.128 246.511 169.637C246.002 170.147 245.716 170.838 245.716 171.558V242.986C245.716 243.707 246.002 244.398 246.511 244.907C247.02 245.417 247.71 245.703 248.43 245.703H339.883C340.603 245.703 341.293 245.417 341.802 244.907C342.311 244.398 342.597 243.707 342.598 242.986V171.558C342.597 170.838 342.311 170.147 341.802 169.637C341.293 169.128 340.603 168.841 339.883 168.841Z" fill="#E6E6E6"/>
<path d="M273.516 212.703C273.554 218.733 271.333 224.558 267.292 229.031C263.293 233.422 257.34 236.335 251.332 235.13C245.8 234.02 241.305 229.182 241.866 223.328C241.959 222.06 242.327 220.828 242.945 219.717C243.563 218.606 244.415 217.644 245.443 216.896C246.47 216.149 247.648 215.635 248.895 215.39C250.141 215.145 251.426 215.175 252.66 215.478C257.915 216.843 260.009 224.422 255.63 227.98C254.579 228.833 253.069 227.34 254.13 226.479C257.025 224.127 256.13 218.982 252.636 217.692C248.568 216.189 244.258 219.42 243.966 223.582C243.619 228.517 247.396 232.233 252.029 233.108C257.04 234.055 262.008 231.488 265.404 227.945C269.296 223.831 271.443 218.368 271.395 212.703C271.405 212.428 271.521 212.167 271.719 211.976C271.916 211.785 272.181 211.678 272.456 211.678C272.731 211.678 272.995 211.785 273.193 211.976C273.391 212.167 273.507 212.428 273.516 212.703Z" fill="#2F2E41"/>
<path d="M294.228 226.197C315.126 226.197 332.066 209.243 332.066 188.329C332.066 167.415 315.126 150.461 294.228 150.461C273.33 150.461 256.389 167.415 256.389 188.329C256.389 209.243 273.33 226.197 294.228 226.197Z" fill="#F9A826"/>
<path d="M292.292 204.487L292.252 203.072C294.883 202.998 297.202 202.833 298.945 201.559C299.439 201.177 299.845 200.693 300.136 200.141C300.426 199.588 300.594 198.979 300.629 198.355C300.659 197.974 300.602 197.591 300.46 197.236C300.319 196.88 300.098 196.563 299.813 196.307C298.657 195.329 296.795 195.646 295.438 196.268L294.269 196.805L296.512 180.396L297.913 180.589L296.005 194.546C297.848 194.004 299.556 194.237 300.726 195.226C301.175 195.619 301.528 196.11 301.756 196.661C301.984 197.213 302.082 197.809 302.042 198.405C302 199.243 301.776 200.062 301.386 200.804C300.995 201.546 300.446 202.194 299.779 202.702C297.54 204.339 294.63 204.421 292.292 204.487Z" fill="#2F2E41"/>
<path d="M312.457 181.792H304.841V183.208H312.457V181.792Z" fill="#2F2E41"/>
<path d="M288.418 181.792H280.803V183.208H288.418V181.792Z" fill="#2F2E41"/>
<path d="M273.268 245.703C276.104 243.902 279.169 242.491 282.381 241.507C282.075 240.417 282.079 239.262 282.395 238.175C282.822 236.801 283.681 235.601 284.844 234.756C286.007 233.91 287.413 233.464 288.85 233.484H298.07C299.51 233.465 300.917 233.912 302.083 234.759C303.248 235.605 304.11 236.806 304.539 238.182C304.855 239.267 304.86 240.419 304.553 241.507C307.764 242.492 310.83 243.903 313.666 245.703H273.268Z" fill="#2F2E41"/>
<path d="M337.571 174.275C336.881 173.44 336.033 172.749 335.075 172.244C334.235 171.805 333.301 171.575 332.353 171.572C331.051 171.588 329.787 172.014 328.74 172.789C325.863 174.827 323.869 179.221 323.869 184.308C323.869 190.691 327.008 195.983 331.087 196.903C331.503 196.996 331.927 197.044 332.353 197.044C337.026 197.044 340.837 191.334 340.837 184.308C340.837 180.233 339.557 176.603 337.571 174.275Z" fill="#3F3D56"/>
<path d="M259.856 172.485H259.849C258.904 171.898 257.815 171.582 256.702 171.572C255.754 171.575 254.821 171.805 253.98 172.244C253.022 172.749 252.174 173.44 251.485 174.275L251.477 174.282C249.498 176.61 248.218 180.24 248.218 184.308C248.218 189.799 250.537 194.483 253.789 196.273C254.68 196.772 255.682 197.038 256.702 197.044C256.929 197.044 257.156 197.03 257.381 197.002H257.388C261.743 196.478 265.187 190.988 265.187 184.308C265.187 178.959 262.974 174.367 259.856 172.485Z" fill="#3F3D56"/>
<path d="M254.32 195.056C254.488 195.055 254.654 195.015 254.804 194.938C254.954 194.861 255.083 194.75 255.181 194.613C255.279 194.476 255.344 194.318 255.369 194.151C255.394 193.984 255.379 193.814 255.325 193.655C253.298 187.622 252.688 181.204 253.543 174.898C254.398 168.591 256.694 162.567 260.254 157.294C263.813 152.02 268.54 147.639 274.066 144.49C279.592 141.342 285.77 139.511 292.118 139.141C298.466 138.77 304.815 139.869 310.669 142.353C316.524 144.837 321.728 148.638 325.876 153.462C330.024 158.286 333.005 164.002 334.586 170.166C336.168 176.33 336.308 182.776 334.996 189.003C334.938 189.278 334.992 189.565 335.145 189.801C335.299 190.037 335.54 190.202 335.815 190.26C336.09 190.318 336.377 190.265 336.613 190.111C336.849 189.957 337.014 189.716 337.072 189.441C338.452 182.894 338.305 176.116 336.643 169.635C334.98 163.154 331.847 157.144 327.486 152.072C323.125 147.001 317.654 143.003 311.498 140.392C305.342 137.78 298.668 136.624 291.993 137.014C285.318 137.404 278.824 139.329 273.013 142.64C267.203 145.95 262.234 150.557 258.492 156.103C254.75 161.648 252.336 167.982 251.439 174.612C250.541 181.243 251.183 187.991 253.315 194.333C253.386 194.544 253.521 194.726 253.701 194.856C253.882 194.986 254.098 195.055 254.32 195.056Z" fill="#3F3D56"/>
<path d="M313.236 163.794C314.734 165.841 313.996 168.599 312.417 170.364C310.363 172.66 307.087 172.805 304.243 172.379C301.051 171.901 297.665 170.404 294.434 171.413C291.68 172.272 289.715 174.772 286.854 175.4C284.317 175.957 281.282 175.22 280.393 172.513C279.965 171.212 282.013 170.655 282.438 171.949C283.014 173.7 285.499 173.665 286.922 173.18C289.203 172.403 290.961 170.512 293.204 169.609C295.847 168.544 298.716 169.025 301.407 169.631C303.944 170.203 306.864 171.051 309.391 169.983C311.262 169.192 312.75 166.703 311.404 164.865C310.597 163.762 312.437 162.702 313.236 163.794Z" fill="#2F2E41"/>
<path d="M460.881 293.924H326.335C325.591 293.924 324.854 293.777 324.166 293.492C323.479 293.207 322.854 292.79 322.328 292.263C321.802 291.737 321.385 291.111 321.1 290.423C320.815 289.735 320.669 288.998 320.669 288.253C320.669 287.509 320.815 286.771 321.1 286.083C321.385 285.395 321.802 284.77 322.328 284.244C322.854 283.717 323.479 283.3 324.166 283.015C324.854 282.73 325.591 282.583 326.335 282.583H460.881C462.382 282.585 463.822 283.183 464.883 284.246C465.944 285.309 466.541 286.751 466.541 288.253C466.541 289.756 465.944 291.198 464.883 292.261C463.822 293.324 462.382 293.922 460.881 293.924Z" fill="#E6E6E6"/>
<path d="M484.253 313.062H326.335C325.59 313.062 324.853 312.916 324.165 312.632C323.476 312.347 322.851 311.93 322.324 311.403C321.797 310.876 321.379 310.251 321.094 309.563C320.809 308.874 320.662 308.136 320.662 307.391C320.662 306.646 320.809 305.908 321.094 305.22C321.379 304.531 321.797 303.906 322.324 303.379C322.851 302.853 323.476 302.435 324.165 302.15C324.853 301.866 325.59 301.72 326.335 301.721H484.253C484.998 301.72 485.736 301.866 486.424 302.15C487.112 302.435 487.737 302.853 488.264 303.379C488.791 303.906 489.209 304.531 489.494 305.22C489.779 305.908 489.926 306.646 489.926 307.391C489.926 308.136 489.779 308.874 489.494 309.563C489.209 310.251 488.791 310.876 488.264 311.403C487.737 311.93 487.112 312.347 486.424 312.632C485.736 312.916 484.998 313.062 484.253 313.062Z" fill="#E6E6E6"/>
<path d="M460.881 362.708H326.335C324.832 362.708 323.391 362.111 322.328 361.047C321.266 359.984 320.669 358.542 320.669 357.038C320.669 355.534 321.266 354.091 322.328 353.028C323.391 351.965 324.832 351.367 326.335 351.367H460.881C462.383 351.367 463.825 351.965 464.887 353.028C465.95 354.091 466.547 355.534 466.547 357.038C466.547 358.542 465.95 359.984 464.887 361.047C463.825 362.111 462.383 362.708 460.881 362.708Z" fill="#E6E6E6"/>
<path d="M484.253 381.846H326.335C324.832 381.846 323.391 381.249 322.328 380.185C321.266 379.122 320.669 377.68 320.669 376.176C320.669 374.672 321.266 373.23 322.328 372.166C323.391 371.103 324.832 370.505 326.335 370.505H484.253C485.756 370.505 487.197 371.103 488.26 372.166C489.322 373.23 489.919 374.672 489.919 376.176C489.919 377.68 489.322 379.122 488.26 380.185C487.197 381.249 485.756 381.846 484.253 381.846Z" fill="#E6E6E6"/>
<path d="M273.084 321.667C286.36 321.667 297.122 310.896 297.122 297.61C297.122 284.323 286.36 273.553 273.084 273.553C259.808 273.553 249.045 284.323 249.045 297.61C249.045 310.896 259.808 321.667 273.084 321.667Z" fill="#E6E6E6"/>
<path d="M273.084 391.008C286.36 391.008 297.122 380.237 297.122 366.951C297.122 353.664 286.36 342.894 273.084 342.894C259.808 342.894 249.045 353.664 249.045 366.951C249.045 380.237 259.808 391.008 273.084 391.008Z" fill="#E6E6E6"/>
<path d="M460.881 432.049H326.335C324.832 432.049 323.391 431.452 322.328 430.388C321.266 429.325 320.669 427.882 320.669 426.378C320.669 424.875 321.266 423.432 322.328 422.369C323.391 421.305 324.832 420.708 326.335 420.708H460.881C462.383 420.708 463.825 421.305 464.887 422.369C465.95 423.432 466.547 424.875 466.547 426.378C466.547 427.882 465.95 429.325 464.887 430.388C463.825 431.452 462.383 432.049 460.881 432.049Z" fill="#E6E6E6"/>
<path d="M484.253 451.187H326.335C324.832 451.187 323.391 450.589 322.328 449.526C321.266 448.462 320.669 447.02 320.669 445.516C320.669 444.012 321.266 442.57 322.328 441.507C323.391 440.443 324.832 439.846 326.335 439.846H484.253C485.756 439.846 487.197 440.443 488.26 441.507C489.322 442.57 489.919 444.012 489.919 445.516C489.919 447.02 489.322 448.462 488.26 449.526C487.197 450.589 485.756 451.187 484.253 451.187Z" fill="#E6E6E6"/>
<path d="M273.084 460.348C286.36 460.348 297.122 449.577 297.122 436.291C297.122 423.005 286.36 412.234 273.084 412.234C259.808 412.234 249.045 423.005 249.045 436.291C249.045 449.577 259.808 460.348 273.084 460.348Z" fill="#E6E6E6"/>
</g>
<defs>
<clipPath id="clip0_73_646">
<rect width="533" height="498" fill="white"/>
</clipPath>
</defs>
</svg>
