<svg version="1.1" id="Layer_1" xmlns="http://www.w3.org/2000/svg" xmlns:xlink="http://www.w3.org/1999/xlink" x="0px" y="0px"
	 width="100%" viewBox="0 0 1080 1080" enable-background="new 0 0 1080 1080" xml:space="preserve">
<path fill="#FFFFFF" opacity="1.000000" stroke="none" 
	d="
M992.000000,1081.000000 
	C662.833313,1081.000000 334.166656,1080.992554 5.500029,1081.093140 
	C1.750896,1081.094360 0.905904,1080.249146 0.906953,1076.500000 
	C1.006863,719.500000 1.006863,362.500000 0.906953,5.500026 
	C0.905904,1.750914 1.750913,0.905901 5.500026,0.906951 
	C362.500000,1.006876 719.500000,1.006876 1076.500000,0.906951 
	C1080.249146,0.905902 1081.094116,1.750913 1081.093018,5.500026 
	C1080.993164,362.500000 1080.993286,719.500000 1081.093140,1076.500000 
	C1081.094238,1080.249146 1080.253052,1081.124268 1076.499390,1081.099609 
	C1048.500488,1080.916260 1020.500000,1081.000000 992.000000,1081.000000 
z"/>
<path fill="#093C6F" opacity="1.000000" stroke="none" 
	d="
M223.540619,477.518158 
	C219.098358,467.918243 216.015610,458.287567 214.249557,448.218628 
	C213.579269,444.397125 213.989044,442.544891 218.748795,442.831665 
	C236.904663,443.925598 253.145630,449.481293 268.491852,459.629333 
	C287.403564,472.135071 299.807831,489.004822 307.606445,509.776276 
	C310.012970,516.185974 311.297760,522.899597 312.157928,529.705383 
	C312.531189,532.658936 311.642334,533.404907 308.718353,533.236816 
	C284.348633,531.835388 263.110199,523.106750 245.154160,506.497620 
	C236.247787,498.259338 229.178619,488.659088 223.540619,477.518158 
z"/>
<path fill="#F9850B" opacity="1.000000" stroke="none" 
	d="
M301.172607,584.827148 
	C293.968323,601.373901 282.056274,613.688721 267.398651,623.421387 
	C252.585892,633.257141 236.174103,638.443604 218.384354,639.462891 
	C214.517746,639.684448 213.461533,638.730774 214.001389,634.853088 
	C216.544037,616.589600 223.788666,600.429382 235.510254,585.894165 
	C244.748688,587.750916 253.654388,589.630493 262.927795,587.613831 
	C267.062134,586.714661 270.757965,584.862183 274.644287,583.416077 
	C283.545258,580.104370 292.246094,581.927185 301.172607,584.827148 
z"/>
<path fill="#093C6F" opacity="1.000000" stroke="none" 
	d="
M410.374329,492.854553 
	C391.827332,517.613403 367.242615,530.729492 336.789032,533.227112 
	C332.269867,533.597778 330.960693,532.656189 331.828278,527.968140 
	C339.061737,488.882690 360.783386,461.964417 398.295197,448.142212 
	C399.207703,447.806000 400.130219,447.496948 401.421417,447.154053 
	C404.300537,449.660828 402.989838,452.428101 402.130432,455.037262 
	C399.019989,464.480499 391.415375,469.560974 383.261902,473.992950 
	C376.833984,477.487000 370.172241,480.537170 363.694275,483.930725 
	C361.317749,485.175629 357.924896,486.596375 358.527008,489.918610 
	C359.131714,493.255096 362.645050,493.964813 365.567047,494.620758 
	C378.898071,497.613495 391.982269,496.085327 404.949707,492.371765 
	C406.713135,491.866760 408.636566,490.301819 410.374329,492.854553 
z"/>
<path fill="#EE4F0B" opacity="1.000000" stroke="none" 
	d="
M426.194946,638.704895 
	C414.583221,639.887390 404.100128,636.362610 393.339294,632.392700 
	C391.587952,631.941589 390.440063,631.106750 388.895447,630.302368 
	C387.851440,629.921326 387.136566,629.659180 386.224823,629.184692 
	C383.374023,624.558777 385.615082,620.536438 387.271362,616.632935 
	C389.481293,611.424500 392.213898,606.432068 394.117889,601.091614 
	C398.482330,588.849609 392.667664,580.442017 379.873688,580.368286 
	C370.827362,580.316162 361.964783,581.506531 353.260986,584.032532 
	C350.071777,584.958069 346.873779,585.938354 343.155884,586.404175 
	C336.265747,575.883423 333.193359,564.250305 331.568481,552.112366 
	C331.211487,549.445557 332.238220,548.947571 334.526733,549.048706 
	C356.309967,550.011536 375.722015,557.180481 392.841400,570.771362 
	C401.738892,577.835022 409.013611,586.227417 415.046600,596.078979 
	C416.227325,598.210022 415.352448,599.898743 414.744141,601.612183 
	C413.745575,604.424927 412.567749,607.180542 411.723053,610.039612 
	C409.004364,619.241699 410.794403,624.174927 418.915985,630.209351 
	C420.645203,631.494202 422.612213,632.441101 424.234650,633.878784 
	C425.592255,635.081909 427.191498,636.186218 426.194946,638.704895 
z"/>
<path fill="#0B0B0B" opacity="1.000000" stroke="none" 
	d="
M795.325684,591.500488 
	C775.205933,586.612366 766.268921,569.740234 768.433594,548.127380 
	C770.291809,529.575134 779.590149,518.063416 795.662170,514.705261 
	C821.747559,509.254852 837.059509,526.971619 836.118347,550.593872 
	C835.935791,555.174622 832.663574,555.689758 829.061584,555.686829 
	C814.897339,555.675415 800.733032,555.680603 786.568787,555.683228 
	C780.225098,555.684448 780.133850,555.802246 781.421143,562.107971 
	C785.009644,579.686584 802.149048,587.752747 818.982422,579.743408 
	C822.135376,578.243225 825.176392,576.509460 828.299805,574.944702 
	C830.316833,573.934265 832.451904,573.227722 834.220886,575.314087 
	C836.078613,577.505066 835.920898,579.917419 834.430664,582.250305 
	C833.327271,583.977722 831.646423,585.083374 829.919617,586.117065 
	C819.251404,592.503174 807.789185,593.921387 795.325684,591.500488 
z"/>
<path fill="#0B0B0B" opacity="1.000000" stroke="none" 
	d="
M499.681580,520.270386 
	C505.816528,527.316895 511.791748,534.031921 517.543213,540.933472 
	C519.739868,543.569397 521.091248,543.430115 523.256226,540.850586 
	C529.778931,533.079224 536.572754,525.536011 543.201599,517.852661 
	C545.807312,514.832336 548.570312,512.545715 552.537537,515.463135 
	C555.692017,517.782837 555.494507,521.581177 552.091003,525.489014 
	C545.317993,533.265686 538.658447,541.153503 531.592590,548.656921 
	C528.643066,551.789062 528.748901,553.716858 531.610474,556.777344 
	C538.994568,564.674622 546.003113,572.921936 553.213867,580.982727 
	C555.972778,584.066833 557.288330,587.220703 553.862488,590.572876 
	C551.002563,593.371216 547.745605,592.536865 544.137390,588.397827 
	C537.140137,580.371033 530.013916,572.453430 523.160461,564.306030 
	C521.032349,561.776184 519.888977,561.486816 517.630554,564.192261 
	C510.809906,572.362854 503.698120,580.290039 496.721741,588.331116 
	C493.118591,592.484131 490.020172,593.271362 486.996460,590.723877 
	C484.049255,588.240845 484.240082,584.672058 487.733704,580.689026 
	C494.863495,572.560425 501.882660,564.320862 509.333557,556.494690 
	C512.253113,553.428101 511.904572,551.661560 509.270935,548.807129 
	C502.504089,541.473083 496.041351,533.858032 489.478638,526.336487 
	C488.498047,525.212646 487.458710,524.083069 486.751740,522.789368 
	C485.276520,520.089905 485.889832,517.576355 488.140320,515.599304 
	C490.477966,513.545654 493.036285,513.587219 495.351105,515.638489 
	C496.837036,516.955200 498.080505,518.545654 499.681580,520.270386 
z"/>
<path fill="#61B9E5" opacity="1.000000" stroke="none" 
	d="
M410.636658,493.055176 
	C409.402679,492.094147 408.411285,492.466034 407.231659,492.931580 
	C398.639923,496.322479 389.498932,497.573425 380.464966,497.728210 
	C374.017914,497.838654 367.141449,497.613251 361.018311,494.564423 
	C354.815430,491.475891 354.304932,488.150085 360.114929,484.599060 
	C367.158569,480.294006 374.757172,476.903656 382.067169,473.026123 
	C390.548004,468.527496 398.438080,463.440063 401.297302,453.370392 
	C401.814117,451.550262 401.917236,449.788177 401.822784,447.546051 
	C410.002991,443.305450 418.785431,443.121887 427.589630,443.049316 
	C429.771973,443.031342 430.020569,444.421906 429.771637,446.046051 
	C427.666016,459.783264 423.787872,472.963379 416.143860,484.678162 
	C414.378235,487.384125 413.527802,490.705139 410.636658,493.055176 
z"/>
<path fill="#0B0B0B" opacity="1.000000" stroke="none" 
	d="
M663.286499,576.760803 
	C655.452515,562.460144 654.928528,547.837952 661.527405,533.692688 
	C672.910583,509.291595 700.831421,510.326660 715.764648,520.030151 
	C717.264587,521.004883 718.605774,522.378540 719.679016,523.821228 
	C721.578064,526.374084 721.701599,529.215332 719.421814,531.566406 
	C717.189087,533.868958 714.746582,532.590820 712.645020,531.123962 
	C707.091064,527.247437 701.290771,524.278198 694.241333,524.378174 
	C683.233582,524.534424 675.449219,530.071472 672.331970,540.634155 
	C670.028625,548.439087 669.846436,556.425720 671.866760,564.327026 
	C675.846680,579.892151 691.155701,586.841614 705.593933,579.686829 
	C708.418701,578.286987 711.043213,576.488220 713.805237,574.954834 
	C715.949097,573.764648 718.224854,572.971924 720.094727,575.344055 
	C721.842590,577.561401 721.653931,580.017822 720.269287,582.344910 
	C719.775085,583.175232 718.978210,583.864258 718.214600,584.489807 
	C704.684875,595.571777 676.011108,597.480164 663.286499,576.760803 
z"/>
<path fill="#EE4F0B" opacity="1.000000" stroke="none" 
	d="
M301.659790,584.934082 
	C296.217896,584.460938 291.001526,583.767151 285.790710,583.034180 
	C280.806122,582.333008 276.280640,583.874084 271.970642,586.047913 
	C260.758575,591.703064 249.258224,590.350952 237.686630,587.666138 
	C237.125092,587.535767 236.692505,586.849670 236.004211,586.077393 
	C252.464172,565.115417 274.031799,553.079773 300.239563,549.867065 
	C314.398804,548.131287 312.770050,546.887939 310.391785,560.819641 
	C308.953613,569.244202 305.886017,577.151428 301.659790,584.934082 
z"/>
<path fill="#F9850B" opacity="1.000000" stroke="none" 
	d="
M342.781372,586.767700 
	C349.060699,582.477234 356.423462,581.658691 363.409698,580.240173 
	C369.475525,579.008545 375.858673,578.707947 382.202515,578.908752 
	C393.120239,579.254089 400.163055,589.567261 396.037201,599.862854 
	C393.768372,605.524475 391.251740,611.092529 388.676483,616.623413 
	C386.965515,620.297913 385.891296,624.051575 386.025024,628.545410 
	C366.946533,619.846863 352.790710,605.635742 342.781372,586.767700 
z"/>
<path fill="#0B0B0B" opacity="1.000000" stroke="none" 
	d="
M736.390808,496.032715 
	C736.456177,492.377350 736.358582,489.201202 736.629944,486.056915 
	C736.942322,482.437256 739.375488,480.891541 742.786255,480.855438 
	C746.307739,480.818146 748.351746,482.742401 748.942932,486.148651 
	C749.140015,487.283844 749.031555,488.475281 749.031677,489.640991 
	C749.034912,520.962769 749.036072,552.284485 749.028137,583.606262 
	C749.027771,584.936707 749.164429,586.325195 748.843140,587.586182 
	C748.047607,590.708801 745.919250,592.363159 742.652283,592.294128 
	C739.460693,592.226807 737.148865,590.876282 736.681763,587.471680 
	C736.434082,585.666626 736.403015,583.821533 736.401978,581.994446 
	C736.385925,553.505005 736.390808,525.015503 736.390808,496.032715 
z"/>
<path fill="#0B0B0B" opacity="1.000000" stroke="none" 
	d="
M623.379517,524.564087 
	C629.582520,516.303345 638.139526,514.271301 647.410339,514.022888 
	C650.595886,513.937561 652.399414,515.808533 652.535645,518.920410 
	C652.663025,521.829895 651.573364,524.217468 648.354858,524.799622 
	C646.068176,525.213196 643.737305,525.386658 641.423828,525.646912 
	C628.766541,527.070923 621.328552,535.048462 621.138367,547.878235 
	C620.953491,560.354553 621.140808,572.836060 621.071777,585.314758 
	C621.042480,590.613342 617.935120,593.246887 613.209900,592.157104 
	C609.987366,591.413879 608.560547,589.289673 608.564331,586.003540 
	C608.589294,564.206726 608.582031,542.409912 608.574036,520.613098 
	C608.572388,516.270996 610.960693,514.058167 615.048401,514.084961 
	C619.149231,514.111755 620.789856,516.876221 620.878967,520.713074 
	C620.913757,522.209839 620.858093,523.709106 620.911926,525.204773 
	C620.932434,525.773315 620.705017,526.839355 621.621094,526.625305 
	C622.235535,526.481628 622.649658,525.481140 623.379517,524.564087 
z"/>
<path fill="#0B0B0B" opacity="1.000000" stroke="none" 
	d="
M585.048096,559.000854 
	C585.047729,567.991333 585.007202,576.481995 585.064026,584.972046 
	C585.092773,589.271973 583.512207,592.122131 578.844177,592.292908 
	C574.521240,592.450989 572.224731,589.984436 572.209351,584.849792 
	C572.146057,563.707153 572.142517,542.564087 572.212280,521.421509 
	C572.228516,516.496033 574.849304,513.723450 578.983826,514.026245 
	C583.567322,514.361877 585.089294,517.278809 585.068420,521.542664 
	C585.008057,533.861816 585.047791,546.181396 585.048096,559.000854 
z"/>
<path fill="#0B0B0B" opacity="1.000000" stroke="none" 
	d="
M426.266907,639.034119 
	C425.767181,634.886292 422.183228,633.927917 419.526367,632.289795 
	C412.457214,627.931152 408.161255,621.003235 409.180420,615.065186 
	C410.109222,609.653748 412.219971,604.618164 414.186462,599.538574 
	C414.484772,598.768005 414.791931,598.000793 415.051697,596.820312 
	C415.730438,597.492615 416.452454,598.576660 417.320251,600.026611 
	C418.357697,602.557983 417.546692,604.572632 416.960419,606.628235 
	C414.060394,616.796509 415.964081,621.755615 424.870483,627.361938 
	C425.842712,627.973938 426.893768,628.459717 428.028503,629.464111 
	C428.702148,631.955139 429.099945,634.178772 429.589966,636.381836 
	C430.196350,639.108093 428.732300,639.442505 426.266907,639.034119 
z"/>
<path fill="#0B0B0B" opacity="1.000000" stroke="none" 
	d="
M571.213135,493.584473 
	C569.422119,489.215302 569.994934,485.620941 573.813416,483.295288 
	C577.535583,481.028259 581.503906,481.176178 584.812256,484.194489 
	C587.558655,486.700134 587.798157,489.992279 586.262573,493.293488 
	C583.680176,498.845398 576.612610,499.116119 571.213135,493.584473 
z"/>
<path fill="#093C6F" opacity="1.000000" stroke="none" 
	d="
M428.366455,629.406128 
	C418.530975,627.572937 412.762695,618.619202 415.043701,609.190002 
	C415.701294,606.471619 416.418976,603.767700 417.287537,600.724854 
	C423.472443,609.054932 426.063538,619.027771 428.366455,629.406128 
z"/>
<path fill="#F9850B" opacity="1.000000" stroke="none" 
	d="
M388.769989,630.434021 
	C390.231750,629.842346 391.514740,630.628845 392.879700,631.869263 
	C391.405762,632.400269 390.298401,631.240234 388.769989,630.434021 
z"/>
<path fill="#FFFFFF" opacity="1.000000" stroke="none" 
	d="
M824.085327,539.291504 
	C824.360596,540.504822 824.542603,541.315552 824.752991,542.118896 
	C825.803101,546.128784 824.624512,547.587524 820.161621,547.462952 
	C808.369446,547.133728 796.560791,547.259521 784.761353,547.411377 
	C781.550415,547.452698 780.835693,546.649048 781.503662,543.420654 
	C784.248169,530.156128 792.116882,523.415894 804.984436,523.716980 
	C814.910217,523.949219 820.140930,528.120605 824.085327,539.291504 
z"/>
</svg>