<svg width="1920" height="3245" viewBox="0 0 1920 3245" fill="none" xmlns="http://www.w3.org/2000/svg">
<rect width="1920" height="3245" fill="url(#paint0_linear_321_5)"/>
<g clip-path="url(#clip0_321_5)">
<path d="M35.3826 838.399C38.4992 839.757 36.4676 844.432 33.349 843.078C30.2323 841.72 32.264 837.045 35.3826 838.399Z" fill="white" fill-opacity="0.04"/>
<path d="M71.4559 691.438C74.5725 692.796 72.5409 697.471 69.4222 696.117C66.3036 694.764 68.3372 690.084 71.4559 691.438Z" fill="white" fill-opacity="0.04"/>
<path d="M250.372 599.608C253.491 600.962 251.457 605.641 248.341 604.283C245.222 602.929 247.254 598.255 250.372 599.608Z" fill="white" fill-opacity="0.04"/>
<path d="M226.587 539.242C229.706 540.595 227.672 545.275 224.556 543.917C221.437 542.563 223.471 537.884 226.587 539.242Z" fill="white" fill-opacity="0.04"/>
<path d="M137.346 738.159C140.469 739.515 138.435 744.194 135.318 742.836C132.2 741.482 134.227 736.805 137.346 738.159Z" fill="white" fill-opacity="0.04"/>
<path d="M155.905 910.263C159.024 911.617 156.986 916.294 153.869 914.936C150.753 913.578 152.789 908.905 155.905 910.263Z" fill="white" fill-opacity="0.04"/>
<path d="M158.244 879.279C161.361 880.637 159.329 885.312 156.211 883.958C153.092 882.605 155.126 877.925 158.244 879.279Z" fill="white" fill-opacity="0.04"/>
<path d="M193.833 886.43C196.952 887.784 194.918 892.463 191.802 891.105C188.683 889.751 190.715 885.076 193.833 886.43Z" fill="white" fill-opacity="0.04"/>
<path d="M171.968 879.683C175.087 881.037 173.055 885.712 169.936 884.358C166.818 883.004 168.851 878.325 171.968 879.683Z" fill="white" fill-opacity="0.04"/>
<path d="M176.446 913.614C179.562 914.972 177.531 919.647 174.412 918.293C171.295 916.935 173.327 912.26 176.446 913.614Z" fill="white" fill-opacity="0.04"/>
<path d="M121.393 813.224C124.511 814.577 122.478 819.256 119.361 817.898C116.243 816.545 118.276 811.865 121.393 813.224Z" fill="white" fill-opacity="0.04"/>
<path d="M153.302 774.991C156.419 776.349 154.387 781.024 151.268 779.67C148.152 778.312 150.183 773.637 153.302 774.991Z" fill="white" fill-opacity="0.04"/>
<path d="M187.419 805.779C190.538 807.132 188.504 811.812 185.386 810.458C182.269 809.1 184.301 804.425 187.419 805.779Z" fill="white" fill-opacity="0.04"/>
<path d="M144.114 773.782C147.233 775.136 145.201 779.81 142.082 778.457C138.964 777.103 140.997 772.424 144.114 773.782Z" fill="white" fill-opacity="0.04"/>
<path d="M169.768 714.715C172.887 716.069 170.855 720.744 167.737 719.39C164.618 718.036 166.652 713.357 169.768 714.715Z" fill="white" fill-opacity="0.04"/>
<path d="M76.5086 611.619C79.6252 612.977 77.5936 617.651 74.475 616.298C71.3564 614.944 73.39 610.265 76.5086 611.619Z" fill="white" fill-opacity="0.04"/>
<path d="M101.04 604.204C104.161 605.564 102.125 610.237 99.0067 608.883C95.8901 607.525 97.9217 602.85 101.04 604.204Z" fill="white" fill-opacity="0.04"/>
<path d="M101.454 622.468C104.573 623.822 102.539 628.501 99.4203 627.147C96.3017 625.794 98.3353 621.114 101.454 622.468Z" fill="white" fill-opacity="0.04"/>
<path d="M153.098 574.026C156.214 575.384 154.178 580.057 151.06 578.703C147.943 577.345 149.981 572.668 153.098 574.026Z" fill="white" fill-opacity="0.04"/>
<path d="M270.911 545.992C274.03 547.346 271.996 552.025 268.879 550.667C265.761 549.313 267.794 544.634 270.911 545.992Z" fill="white" fill-opacity="0.04"/>
<path d="M247.397 788.763C253.634 791.471 249.569 800.825 243.331 798.117C237.096 795.405 241.161 786.052 247.397 788.763Z" fill="white" fill-opacity="0.04"/>
<path d="M153.072 510.061C159.308 512.772 155.242 522.126 149.005 519.419C142.77 516.707 146.835 507.353 153.072 510.061Z" fill="white" fill-opacity="0.04"/>
<path d="M109.002 454.756C115.237 457.467 111.172 466.821 104.934 464.114C98.6989 461.402 102.764 452.048 109.002 454.756Z" fill="white" fill-opacity="0.04"/>
<path d="M154.104 603.649C160.339 606.36 156.274 615.714 150.038 613.003C143.803 610.291 147.868 600.937 154.104 603.649Z" fill="white" fill-opacity="0.04"/>
<path d="M95.1491 862.282C101.384 864.994 97.319 874.348 91.0837 871.636C84.8484 868.924 88.9138 859.57 95.1491 862.282Z" fill="white" fill-opacity="0.04"/>
<path d="M142.731 823.197C145.849 824.551 143.82 829.232 140.701 827.878C137.58 826.518 139.612 821.843 142.731 823.197Z" fill="white" fill-opacity="0.04"/>
<path d="M65.2982 774.248C68.4168 775.602 66.3831 780.281 63.2665 778.923C60.1479 777.569 62.1795 772.894 65.2982 774.248Z" fill="white" fill-opacity="0.04"/>
<path d="M178.798 676.22C181.917 677.573 179.883 682.253 176.764 680.899C173.648 679.541 175.679 674.866 178.798 676.22Z" fill="white" fill-opacity="0.04"/>
<path d="M357.716 584.417C360.834 585.771 358.796 590.448 355.68 589.09C352.561 587.736 354.599 583.059 357.716 584.417Z" fill="white" fill-opacity="0.04"/>
<path d="M333.935 524.04C337.052 525.398 335.02 530.073 331.902 528.719C328.785 527.361 330.817 522.686 333.935 524.04Z" fill="white" fill-opacity="0.04"/>
<path d="M244.688 722.94C247.807 724.294 245.773 728.973 242.657 727.615C239.538 726.262 241.572 721.582 244.688 722.94Z" fill="white" fill-opacity="0.04"/>
<path d="M263.246 895.017C266.363 896.375 264.331 901.05 261.213 899.696C258.096 898.338 260.128 893.664 263.246 895.017Z" fill="white" fill-opacity="0.04"/>
<path d="M265.582 864.072C268.7 865.426 266.667 870.105 263.55 868.747C260.432 867.393 262.465 862.714 265.582 864.072Z" fill="white" fill-opacity="0.04"/>
<path d="M301.176 871.212C304.294 872.565 302.261 877.245 299.144 875.886C296.025 874.533 298.059 869.854 301.176 871.212Z" fill="white" fill-opacity="0.04"/>
<path d="M279.311 864.492C282.428 865.85 280.396 870.525 277.278 869.171C274.161 867.813 276.193 863.138 279.311 864.492Z" fill="white" fill-opacity="0.04"/>
<path d="M283.788 898.396C286.907 899.749 284.873 904.428 281.756 903.07C278.638 901.717 280.669 897.042 283.788 898.396Z" fill="white" fill-opacity="0.04"/>
<path d="M228.719 798.011C231.837 799.365 229.804 804.044 226.687 802.686C223.568 801.332 225.602 796.653 228.719 798.011Z" fill="white" fill-opacity="0.04"/>
<path d="M260.644 759.772C263.761 761.13 261.729 765.805 258.611 764.451C255.494 763.093 257.526 758.419 260.644 759.772Z" fill="white" fill-opacity="0.04"/>
<path d="M294.745 790.566C297.864 791.92 295.832 796.595 292.714 795.241C289.595 793.887 291.629 789.208 294.745 790.566Z" fill="white" fill-opacity="0.04"/>
<path d="M251.445 758.558C254.564 759.912 252.53 764.591 249.413 763.233C246.295 761.879 248.328 757.2 251.445 758.558Z" fill="white" fill-opacity="0.04"/>
<path d="M277.099 699.492C280.216 700.85 278.184 705.525 275.066 704.171C271.949 702.813 273.981 698.138 277.099 699.492Z" fill="white" fill-opacity="0.04"/>
<path d="M183.855 596.415C186.971 597.773 184.94 602.448 181.821 601.094C178.705 599.736 180.736 595.062 183.855 596.415Z" fill="white" fill-opacity="0.04"/>
<path d="M208.365 588.991C211.484 590.344 209.45 595.024 206.331 593.67C203.215 592.312 205.246 587.637 208.365 588.991Z" fill="white" fill-opacity="0.04"/>
<path d="M208.783 607.244C211.901 608.597 209.868 613.276 206.751 611.918C203.632 610.565 205.666 605.885 208.783 607.244Z" fill="white" fill-opacity="0.04"/>
<path d="M260.429 558.802C263.547 560.156 261.515 564.831 258.397 563.477C255.278 562.123 257.312 557.444 260.429 558.802Z" fill="white" fill-opacity="0.04"/>
<path d="M317.852 458.646C320.97 460 318.937 464.679 315.818 463.325C312.702 461.967 314.733 457.292 317.852 458.646Z" fill="white" fill-opacity="0.04"/>
<path d="M356.572 478.246C359.691 479.6 357.659 484.275 354.54 482.921C351.422 481.567 353.453 476.893 356.572 478.246Z" fill="white" fill-opacity="0.04"/>
<path d="M378.253 530.774C381.372 532.127 379.338 536.807 376.222 535.448C373.103 534.095 375.135 529.42 378.253 530.774Z" fill="white" fill-opacity="0.04"/>
<path d="M474.793 510.224C477.91 511.582 475.871 516.26 472.755 514.902C469.638 513.543 471.674 508.871 474.793 510.224Z" fill="white" fill-opacity="0.04"/>
<path d="M354.734 773.556C360.971 776.263 356.905 785.617 350.668 782.91C344.433 780.198 348.498 770.844 354.734 773.556Z" fill="white" fill-opacity="0.04"/>
<path d="M82.4764 626.022C88.7118 628.734 84.642 638.085 78.4067 635.374C72.1713 632.662 76.2411 623.31 82.4764 626.022Z" fill="white" fill-opacity="0.04"/>
<path d="M260.413 494.855C266.648 497.567 262.583 506.92 256.347 504.209C250.112 501.497 254.177 492.143 260.413 494.855Z" fill="white" fill-opacity="0.04"/>
<path d="M216.339 439.548C222.576 442.256 218.51 451.61 212.273 448.902C206.038 446.19 210.103 436.837 216.339 439.548Z" fill="white" fill-opacity="0.04"/>
<path d="M261.446 588.43C267.681 591.142 263.611 600.494 257.376 597.782C251.141 595.07 255.21 585.719 261.446 588.43Z" fill="white" fill-opacity="0.04"/>
<path d="M435.936 484.95C442.171 487.662 438.106 497.016 431.87 494.304C425.635 491.593 429.7 482.239 435.936 484.95Z" fill="white" fill-opacity="0.04"/>
<path d="M570.872 666.217C577.107 668.929 573.042 678.283 566.806 675.571C560.569 672.864 564.634 663.51 570.872 666.217Z" fill="white" fill-opacity="0.04"/>
<path d="M521.255 709.972C524.371 711.33 522.34 716.005 519.221 714.652C516.104 713.293 518.136 708.619 521.255 709.972Z" fill="white" fill-opacity="0.04"/>
<path d="M598.688 758.949C601.807 760.303 599.775 764.978 596.657 763.624C593.538 762.27 595.572 757.591 598.688 758.949Z" fill="white" fill-opacity="0.04"/>
<path d="M485.182 856.961C488.301 858.315 486.267 862.994 483.151 861.636C480.032 860.282 482.066 855.603 485.182 856.961Z" fill="white" fill-opacity="0.04"/>
<path d="M306.265 948.763C309.382 950.121 307.35 954.796 304.231 953.442C301.115 952.084 303.146 947.41 306.265 948.763Z" fill="white" fill-opacity="0.04"/>
<path d="M330.051 1009.16C333.17 1010.51 331.136 1015.19 328.019 1013.83C324.901 1012.48 326.934 1007.8 330.051 1009.16Z" fill="white" fill-opacity="0.04"/>
<path d="M419.298 810.229C422.416 811.583 420.383 816.262 417.266 814.904C414.147 813.55 416.179 808.875 419.298 810.229Z" fill="white" fill-opacity="0.04"/>
<path d="M400.745 638.169C403.864 639.522 401.83 644.201 398.712 642.848C395.595 641.49 397.627 636.815 400.745 638.169Z" fill="white" fill-opacity="0.04"/>
<path d="M398.392 669.093C401.511 670.446 399.477 675.125 396.359 673.772C393.242 672.414 395.274 667.739 398.392 669.093Z" fill="white" fill-opacity="0.04"/>
<path d="M362.811 661.985C365.927 663.343 363.896 668.018 360.779 666.66C357.661 665.306 359.694 660.627 362.811 661.985Z" fill="white" fill-opacity="0.04"/>
<path d="M384.681 668.721C387.798 670.079 385.766 674.754 382.649 673.396C379.531 672.042 381.564 667.363 384.681 668.721Z" fill="white" fill-opacity="0.04"/>
<path d="M380.186 634.769C383.305 636.123 381.273 640.797 378.155 639.444C375.036 638.09 377.07 633.411 380.186 634.769Z" fill="white" fill-opacity="0.04"/>
<path d="M435.24 735.159C438.358 736.513 436.325 741.192 433.208 739.834C430.089 738.48 432.121 733.806 435.24 735.159Z" fill="white" fill-opacity="0.04"/>
<path d="M403.342 773.425C406.461 774.778 404.427 779.457 401.308 778.104C398.192 776.746 400.223 772.071 403.342 773.425Z" fill="white" fill-opacity="0.04"/>
<path d="M369.229 742.598C372.346 743.956 370.314 748.631 367.196 747.277C364.077 745.923 366.111 741.244 369.229 742.598Z" fill="white" fill-opacity="0.04"/>
<path d="M412.548 774.655C415.666 776.008 413.633 780.688 410.514 779.334C407.397 777.976 409.429 773.301 412.548 774.655Z" fill="white" fill-opacity="0.04"/>
<path d="M386.875 833.673C389.993 835.026 387.96 839.706 384.843 838.347C381.725 836.994 383.756 832.319 386.875 833.673Z" fill="white" fill-opacity="0.04"/>
<path d="M480.132 936.782C483.248 938.14 481.217 942.814 478.098 941.461C474.981 940.103 477.013 935.428 480.132 936.782Z" fill="white" fill-opacity="0.04"/>
<path d="M455.604 944.185C458.72 945.543 456.689 950.218 453.57 948.864C450.454 947.506 452.485 942.831 455.604 944.185Z" fill="white" fill-opacity="0.04"/>
<path d="M455.203 925.926C458.32 927.284 456.288 931.959 453.169 930.605C450.051 929.251 452.084 924.572 455.203 925.926Z" fill="white" fill-opacity="0.04"/>
<path d="M403.557 974.367C406.674 975.725 404.642 980.4 401.523 979.046C398.405 977.693 400.438 973.013 403.557 974.367Z" fill="white" fill-opacity="0.04"/>
<path d="M285.732 1002.4C288.851 1003.75 286.817 1008.43 283.701 1007.07C280.582 1005.72 282.616 1001.04 285.732 1002.4Z" fill="white" fill-opacity="0.04"/>
<path d="M311.276 754.939C317.511 757.65 313.446 767.004 307.211 764.292C300.973 761.585 305.039 752.231 311.276 754.939Z" fill="white" fill-opacity="0.04"/>
<path d="M405.597 1033.64C411.832 1036.35 407.767 1045.71 401.531 1042.99C395.294 1040.29 399.36 1030.93 405.597 1033.64Z" fill="white" fill-opacity="0.04"/>
<path d="M449.682 1088.95C455.917 1091.66 451.848 1101.01 445.612 1098.3C439.377 1095.59 443.447 1086.24 449.682 1088.95Z" fill="white" fill-opacity="0.04"/>
<path d="M404.575 940.069C410.812 942.777 406.745 952.135 400.509 949.423C394.274 946.711 398.34 937.358 404.575 940.069Z" fill="white" fill-opacity="0.04"/>
<path d="M547.333 522.072C553.568 524.784 549.503 534.138 543.267 531.426C537.032 528.714 541.097 519.36 547.333 522.072Z" fill="white" fill-opacity="0.04"/>
<path d="M497.733 565.848C500.851 567.202 498.818 571.881 495.701 570.523C492.582 569.17 494.616 564.49 497.733 565.848Z" fill="white" fill-opacity="0.04"/>
<path d="M575.177 614.83C578.294 616.188 576.267 620.865 573.148 619.511C570.029 618.158 572.059 613.476 575.177 614.83Z" fill="white" fill-opacity="0.04"/>
<path d="M461.672 712.842C464.79 714.196 462.757 718.875 459.64 717.517C456.521 716.163 458.553 711.488 461.672 712.842Z" fill="white" fill-opacity="0.04"/>
<path d="M282.742 804.612C285.859 805.97 283.827 810.645 280.708 809.291C277.59 807.937 279.623 803.258 282.742 804.612Z" fill="white" fill-opacity="0.04"/>
<path d="M306.539 865.011C309.658 866.365 307.626 871.039 304.508 869.686C301.389 868.332 303.423 863.653 306.539 865.011Z" fill="white" fill-opacity="0.04"/>
<path d="M395.781 666.094C398.899 667.448 396.866 672.127 393.749 670.769C390.63 669.415 392.664 664.736 395.781 666.094Z" fill="white" fill-opacity="0.04"/>
<path d="M377.188 493.974C380.307 495.328 378.278 500.009 375.159 498.655C372.036 497.3 374.07 492.62 377.188 493.974Z" fill="white" fill-opacity="0.04"/>
<path d="M374.904 524.984C378.023 526.337 375.989 531.017 372.872 529.659C369.754 528.305 371.787 523.626 374.904 524.984Z" fill="white" fill-opacity="0.04"/>
<path d="M339.271 517.812C342.389 519.166 340.356 523.845 337.237 522.492C334.121 521.133 336.152 516.459 339.271 517.812Z" fill="white" fill-opacity="0.04"/>
<path d="M361.146 524.537C364.265 525.891 362.231 530.57 359.115 529.212C355.996 527.858 358.028 523.183 361.146 524.537Z" fill="white" fill-opacity="0.04"/>
<path d="M356.67 490.634C359.788 491.987 357.755 496.667 354.638 495.308C351.519 493.955 353.553 489.276 356.67 490.634Z" fill="white" fill-opacity="0.04"/>
<path d="M411.728 591.013C414.844 592.371 412.813 597.046 409.694 595.692C406.578 594.334 408.609 589.659 411.728 591.013Z" fill="white" fill-opacity="0.04"/>
<path d="M379.825 629.289C382.944 630.643 380.912 635.318 377.794 633.964C374.675 632.61 376.709 627.931 379.825 629.289Z" fill="white" fill-opacity="0.04"/>
<path d="M345.701 598.458C348.82 599.811 346.786 604.491 343.669 603.132C340.551 601.779 342.584 597.1 345.701 598.458Z" fill="white" fill-opacity="0.04"/>
<path d="M389.013 630.471C392.131 631.825 390.097 636.504 386.981 635.146C383.862 633.792 385.894 629.117 389.013 630.471Z" fill="white" fill-opacity="0.04"/>
<path d="M363.358 689.537C366.475 690.896 364.443 695.57 361.325 694.217C358.208 692.859 360.24 688.184 363.358 689.537Z" fill="white" fill-opacity="0.04"/>
<path d="M456.626 792.651C459.744 794.005 457.711 798.684 454.594 797.326C451.476 795.972 453.507 791.298 456.626 792.651Z" fill="white" fill-opacity="0.04"/>
<path d="M432.081 800.033C435.2 801.387 433.168 806.062 430.05 804.708C426.931 803.354 428.965 798.675 432.081 800.033Z" fill="white" fill-opacity="0.04"/>
<path d="M431.669 781.769C434.785 783.127 432.754 787.802 429.635 786.449C426.517 785.095 428.55 780.416 431.669 781.769Z" fill="white" fill-opacity="0.04"/>
<path d="M380.035 830.243C383.154 831.597 381.122 836.272 378.003 834.918C374.885 833.564 376.918 828.885 380.035 830.243Z" fill="white" fill-opacity="0.04"/>
<path d="M322.595 930.405C325.714 931.759 323.685 936.44 320.568 935.082C317.449 933.728 319.477 929.051 322.595 930.405Z" fill="white" fill-opacity="0.04"/>
<path d="M283.873 910.75C286.992 912.104 284.958 916.783 281.84 915.43C278.723 914.071 280.755 909.397 283.873 910.75Z" fill="white" fill-opacity="0.04"/>
<path d="M262.205 858.256C265.323 859.609 263.285 864.286 260.169 862.928C257.05 861.575 259.088 856.897 262.205 858.256Z" fill="white" fill-opacity="0.04"/>
<path d="M165.682 878.854C168.801 880.207 166.767 884.886 163.649 883.533C160.532 882.175 162.564 877.5 165.682 878.854Z" fill="white" fill-opacity="0.04"/>
<path d="M287.759 610.803C293.994 613.515 289.925 622.867 283.689 620.155C277.454 617.443 281.524 608.092 287.759 610.803Z" fill="white" fill-opacity="0.04"/>
<path d="M560.017 758.351C566.254 761.058 562.184 770.41 555.947 767.703C549.712 764.991 553.782 755.639 560.017 758.351Z" fill="white" fill-opacity="0.04"/>
<path d="M382.069 889.499C388.306 892.207 384.241 901.56 378.004 898.853C371.768 896.141 375.834 886.788 382.069 889.499Z" fill="white" fill-opacity="0.04"/>
<path d="M426.154 944.811C432.39 947.523 428.32 956.875 422.084 954.163C415.849 951.451 419.919 942.099 426.154 944.811Z" fill="white" fill-opacity="0.04"/>
<path d="M381.047 795.929C387.282 798.641 383.217 807.995 376.982 805.283C370.746 802.571 374.812 793.217 381.047 795.929Z" fill="white" fill-opacity="0.04"/>
<path d="M206.562 899.398C212.798 902.11 208.732 911.463 202.497 908.752C196.261 906.04 200.327 896.686 206.562 899.398Z" fill="white" fill-opacity="0.04"/>
</g>
<g clip-path="url(#clip1_321_5)">
<path d="M841.785 276.567C839.727 283.047 830.007 279.958 832.065 273.478C834.118 266.996 843.843 270.086 841.785 276.567Z" fill="white" fill-opacity="0.04"/>
<path d="M885.548 319.88C884.517 323.119 879.658 321.578 880.685 318.337C881.716 315.097 886.575 316.639 885.548 319.88Z" fill="white" fill-opacity="0.04"/>
<path d="M926.292 237.846C925.265 241.087 920.407 239.546 921.433 236.304C922.46 233.063 927.323 234.606 926.292 237.846Z" fill="white" fill-opacity="0.04"/>
<path d="M1035.43 340.687C1034.4 343.926 1029.54 342.385 1030.57 339.144C1031.6 335.903 1036.46 337.446 1035.43 340.687Z" fill="white" fill-opacity="0.04"/>
<path d="M1145.13 509.239C1144.11 512.48 1139.24 510.937 1140.28 507.698C1141.3 504.457 1146.16 505.998 1145.13 509.239Z" fill="white" fill-opacity="0.04"/>
<path d="M1202.74 479.387C1201.72 482.628 1196.85 481.085 1197.88 477.845C1198.91 474.604 1203.77 476.147 1202.74 479.387Z" fill="white" fill-opacity="0.04"/>
<path d="M995.72 411.022C994.692 414.268 989.829 412.725 990.86 409.485C991.886 406.244 996.747 407.781 995.72 411.022Z" fill="white" fill-opacity="0.04"/>
<path d="M826.427 447.139C825.401 450.38 820.539 448.832 821.57 445.593C822.601 442.353 827.458 443.899 826.427 447.139Z" fill="white" fill-opacity="0.04"/>
<path d="M857.488 446.287C856.457 449.527 851.598 447.986 852.625 444.745C853.651 441.504 858.514 443.046 857.488 446.287Z" fill="white" fill-opacity="0.04"/>
<path d="M854.026 482.422C852.999 485.663 848.136 484.12 849.167 480.881C850.194 477.64 855.052 479.181 854.026 482.422Z" fill="white" fill-opacity="0.04"/>
<path d="M858.494 459.98C857.467 463.221 852.609 461.68 853.635 458.439C854.662 455.198 859.525 456.74 858.494 459.98Z" fill="white" fill-opacity="0.04"/>
<path d="M825.202 467.915C824.17 471.154 819.312 469.613 820.338 466.372C821.37 463.132 826.228 464.674 825.202 467.915Z" fill="white" fill-opacity="0.04"/>
<path d="M919.414 402.854C918.388 406.095 913.525 404.552 914.556 401.312C915.582 398.071 920.446 399.614 919.414 402.854Z" fill="white" fill-opacity="0.04"/>
<path d="M960.719 430.672C959.688 433.912 954.829 432.371 955.856 429.129C956.887 425.89 961.746 427.431 960.719 430.672Z" fill="white" fill-opacity="0.04"/>
<path d="M933.594 467.768C932.567 471.009 927.704 469.466 928.731 466.225C929.762 462.986 934.62 464.527 933.594 467.768Z" fill="white" fill-opacity="0.04"/>
<path d="M960.979 421.409C959.952 424.65 955.094 423.108 956.12 419.867C957.147 416.626 962.01 418.169 960.979 421.409Z" fill="white" fill-opacity="0.04"/>
<path d="M1022.37 440.868C1021.34 444.11 1016.48 442.568 1017.51 439.327C1018.53 436.086 1023.4 437.629 1022.37 440.868Z" fill="white" fill-opacity="0.04"/>
<path d="M1115.35 337.525C1114.32 340.764 1109.46 339.223 1110.49 335.982C1111.52 332.741 1116.38 334.284 1115.35 337.525Z" fill="white" fill-opacity="0.04"/>
<path d="M1125.24 361.166C1124.21 364.41 1119.35 362.864 1120.38 359.623C1121.41 356.384 1126.27 357.925 1125.24 361.166Z" fill="white" fill-opacity="0.04"/>
<path d="M1107.12 363.451C1106.09 366.692 1101.23 365.149 1102.26 361.908C1103.28 358.667 1108.14 360.21 1107.12 363.451Z" fill="white" fill-opacity="0.04"/>
<path d="M1160.6 409.853C1159.57 413.093 1154.71 411.547 1155.74 408.306C1156.77 405.066 1161.63 406.614 1160.6 409.853Z" fill="white" fill-opacity="0.04"/>
<path d="M1200.57 524.169C1199.55 527.41 1194.68 525.867 1195.72 522.627C1196.74 519.386 1201.61 520.929 1200.57 524.169Z" fill="white" fill-opacity="0.04"/>
<path d="M956.672 525.683C954.619 532.166 944.897 529.081 946.951 522.599C949.008 516.118 958.73 519.203 956.672 525.683Z" fill="white" fill-opacity="0.04"/>
<path d="M1224.23 403.266C1222.17 409.747 1212.45 406.662 1214.5 400.18C1216.56 393.699 1226.28 396.784 1224.23 403.266Z" fill="white" fill-opacity="0.04"/>
<path d="M1274.72 353.754C1272.66 360.235 1262.94 357.15 1264.99 350.668C1267.05 344.188 1276.77 347.272 1274.72 353.754Z" fill="white" fill-opacity="0.04"/>
<path d="M1131.24 413.892C1129.18 420.373 1119.46 417.289 1121.52 410.808C1123.58 404.327 1133.3 407.412 1131.24 413.892Z" fill="white" fill-opacity="0.04"/>
<path d="M867.923 381.781C865.865 388.262 856.143 385.177 858.201 378.697C860.259 372.216 869.98 375.3 867.923 381.781Z" fill="white" fill-opacity="0.04"/>
<path d="M911.683 425.102C910.656 428.343 905.791 426.805 906.818 423.564C907.851 420.32 912.709 421.861 911.683 425.102Z" fill="white" fill-opacity="0.04"/>
<path d="M952.43 343.057C951.403 346.298 946.54 344.755 947.571 341.515C948.598 338.274 953.457 339.816 952.43 343.057Z" fill="white" fill-opacity="0.04"/>
<path d="M1061.58 445.901C1060.56 449.142 1055.69 447.6 1056.72 444.359C1057.75 441.119 1062.61 442.66 1061.58 445.901Z" fill="white" fill-opacity="0.04"/>
<path d="M1171.26 614.457C1170.23 617.699 1165.37 616.151 1166.4 612.912C1167.43 609.671 1172.29 611.218 1171.26 614.457Z" fill="white" fill-opacity="0.04"/>
<path d="M1228.88 584.609C1227.85 587.849 1222.99 586.307 1224.01 583.066C1225.04 579.827 1229.9 581.368 1228.88 584.609Z" fill="white" fill-opacity="0.04"/>
<path d="M1021.87 516.237C1020.84 519.478 1015.98 517.935 1017.01 514.695C1018.04 511.454 1022.9 512.997 1021.87 516.237Z" fill="white" fill-opacity="0.04"/>
<path d="M852.604 552.35C851.573 555.589 846.715 554.048 847.741 550.807C848.772 547.567 853.631 549.108 852.604 552.35Z" fill="white" fill-opacity="0.04"/>
<path d="M883.626 551.498C882.6 554.739 877.737 553.196 878.768 549.957C879.794 546.716 884.658 548.259 883.626 551.498Z" fill="white" fill-opacity="0.04"/>
<path d="M880.176 587.637C879.149 590.878 874.286 589.335 875.317 586.095C876.344 582.854 881.207 584.397 880.176 587.637Z" fill="white" fill-opacity="0.04"/>
<path d="M884.617 565.199C883.585 568.438 878.727 566.897 879.754 563.656C880.785 560.416 885.643 561.957 884.617 565.199Z" fill="white" fill-opacity="0.04"/>
<path d="M851.351 573.129C850.325 576.37 845.462 574.828 846.493 571.588C847.519 568.347 852.378 569.888 851.351 573.129Z" fill="white" fill-opacity="0.04"/>
<path d="M945.557 508.053C944.53 511.294 939.667 509.751 940.698 506.511C941.725 503.27 946.588 504.813 945.557 508.053Z" fill="white" fill-opacity="0.04"/>
<path d="M986.869 535.887C985.838 539.127 980.979 537.585 982.006 534.344C983.037 531.105 987.896 532.646 986.869 535.887Z" fill="white" fill-opacity="0.04"/>
<path d="M959.736 572.967C958.709 576.208 953.85 574.667 954.877 571.426C955.904 568.185 960.767 569.728 959.736 572.967Z" fill="white" fill-opacity="0.04"/>
<path d="M987.133 526.612C986.106 529.853 981.243 528.31 982.274 525.07C983.301 521.829 988.164 523.372 987.133 526.612Z" fill="white" fill-opacity="0.04"/>
<path d="M1048.52 546.072C1047.49 549.311 1042.63 547.77 1043.66 544.529C1044.69 541.289 1049.55 542.831 1048.52 546.072Z" fill="white" fill-opacity="0.04"/>
<path d="M1141.49 442.745C1140.46 445.984 1135.6 444.443 1136.62 441.202C1137.65 437.962 1142.51 439.504 1141.49 442.745Z" fill="white" fill-opacity="0.04"/>
<path d="M1151.39 466.364C1150.36 469.605 1145.5 468.062 1146.52 464.821C1147.55 461.582 1152.41 463.123 1151.39 466.364Z" fill="white" fill-opacity="0.04"/>
<path d="M1133.27 468.652C1132.25 471.893 1127.38 470.35 1128.41 467.111C1129.44 463.87 1134.3 465.412 1133.27 468.652Z" fill="white" fill-opacity="0.04"/>
<path d="M1186.76 515.056C1185.73 518.297 1180.87 516.756 1181.9 513.515C1182.92 510.274 1187.79 511.817 1186.76 515.056Z" fill="white" fill-opacity="0.04"/>
<path d="M1292.28 561.902C1291.25 565.143 1286.39 563.6 1287.41 560.359C1288.44 557.119 1293.3 558.661 1292.28 561.902Z" fill="white" fill-opacity="0.04"/>
<path d="M1276.75 602.428C1275.72 605.669 1270.87 604.128 1271.89 600.887C1272.92 597.646 1277.78 599.187 1276.75 602.428Z" fill="white" fill-opacity="0.04"/>
<path d="M1226.72 629.384C1225.7 632.625 1220.83 631.082 1221.87 627.842C1222.89 624.601 1227.75 626.143 1226.72 629.384Z" fill="white" fill-opacity="0.04"/>
<path d="M1257.07 723.306C1256.04 726.546 1251.18 724.998 1252.21 721.759C1253.24 718.519 1258.1 720.065 1257.07 723.306Z" fill="white" fill-opacity="0.04"/>
<path d="M982.81 630.894C980.757 637.376 971.036 634.292 973.089 627.81C975.146 621.329 984.868 624.414 982.81 630.894Z" fill="white" fill-opacity="0.04"/>
<path d="M1101.64 344.938C1099.58 351.419 1089.86 348.33 1091.92 341.849C1093.97 335.369 1103.69 338.458 1101.64 344.938Z" fill="white" fill-opacity="0.04"/>
<path d="M1250.37 508.48C1248.31 514.961 1238.59 511.876 1240.64 505.396C1242.7 498.915 1252.42 502 1250.37 508.48Z" fill="white" fill-opacity="0.04"/>
<path d="M1300.86 458.965C1298.81 465.447 1289.08 462.363 1291.14 455.881C1293.19 449.4 1302.92 452.484 1300.86 458.965Z" fill="white" fill-opacity="0.04"/>
<path d="M1157.39 519.107C1155.33 525.588 1145.61 522.499 1147.67 516.018C1149.73 509.538 1159.45 512.627 1157.39 519.107Z" fill="white" fill-opacity="0.04"/>
<path d="M1278.22 682.061C1276.17 688.542 1266.44 685.457 1268.5 678.977C1270.56 672.496 1280.28 675.581 1278.22 682.061Z" fill="white" fill-opacity="0.04"/>
<path d="M1111.76 834.881C1109.7 841.361 1099.98 838.277 1102.03 831.796C1104.09 825.314 1113.81 828.398 1111.76 834.881Z" fill="white" fill-opacity="0.04"/>
<path d="M1063.14 790.014C1062.11 793.254 1057.25 791.712 1058.28 788.471C1059.31 785.232 1064.17 786.773 1063.14 790.014Z" fill="white" fill-opacity="0.04"/>
<path d="M1022.37 872.063C1021.34 875.304 1016.48 873.763 1017.51 870.522C1018.53 867.281 1023.4 868.824 1022.37 872.063Z" fill="white" fill-opacity="0.04"/>
<path d="M913.227 769.211C912.201 772.452 907.338 770.909 908.369 767.669C909.395 764.428 914.259 765.971 913.227 769.211Z" fill="white" fill-opacity="0.04"/>
<path d="M803.555 600.655C802.524 603.894 797.665 602.353 798.692 599.112C799.723 595.872 804.582 597.414 803.555 600.655Z" fill="white" fill-opacity="0.04"/>
<path d="M745.92 630.511C744.893 633.752 740.03 632.209 741.061 628.97C742.088 625.729 746.951 627.272 745.92 630.511Z" fill="white" fill-opacity="0.04"/>
<path d="M952.954 698.879C951.927 702.12 947.064 700.578 948.095 697.338C949.122 694.097 953.981 695.638 952.954 698.879Z" fill="white" fill-opacity="0.04"/>
<path d="M1122.2 662.774C1121.18 666.015 1116.31 664.473 1117.34 661.231C1118.37 657.992 1123.23 659.533 1122.2 662.774Z" fill="white" fill-opacity="0.04"/>
<path d="M1091.2 663.606C1090.17 666.847 1085.31 665.304 1086.34 662.063C1087.37 658.824 1092.23 660.365 1091.2 663.606Z" fill="white" fill-opacity="0.04"/>
<path d="M1094.62 627.483C1093.59 630.723 1088.73 629.181 1089.76 625.942C1090.79 622.701 1095.65 624.244 1094.62 627.483Z" fill="white" fill-opacity="0.04"/>
<path d="M1090.16 649.929C1089.13 653.169 1084.27 651.627 1085.31 648.388C1086.33 645.147 1091.2 646.69 1090.16 649.929Z" fill="white" fill-opacity="0.04"/>
<path d="M1123.48 641.975C1122.45 645.216 1117.59 643.675 1118.62 640.434C1119.64 637.193 1124.51 638.736 1123.48 641.975Z" fill="white" fill-opacity="0.04"/>
<path d="M1029.26 707.036C1028.24 710.277 1023.37 708.735 1024.4 705.495C1025.43 702.254 1030.29 703.795 1029.26 707.036Z" fill="white" fill-opacity="0.04"/>
<path d="M987.928 679.233C986.901 682.474 982.038 680.931 983.065 677.69C984.096 674.45 988.954 675.992 987.928 679.233Z" fill="white" fill-opacity="0.04"/>
<path d="M1015.09 642.137C1014.06 645.377 1009.2 643.836 1010.23 640.594C1011.26 637.353 1016.12 638.896 1015.09 642.137Z" fill="white" fill-opacity="0.04"/>
<path d="M987.648 688.516C986.621 691.757 981.758 690.214 982.785 686.973C983.816 683.733 988.675 685.275 987.648 688.516Z" fill="white" fill-opacity="0.04"/>
<path d="M926.308 669.033C925.281 672.274 920.418 670.731 921.449 667.492C922.476 664.251 927.335 665.792 926.308 669.033Z" fill="white" fill-opacity="0.04"/>
<path d="M833.31 772.375C832.279 775.615 827.42 774.073 828.447 770.832C829.478 767.593 834.337 769.134 833.31 772.375Z" fill="white" fill-opacity="0.04"/>
<path d="M823.43 748.736C822.398 751.976 817.54 750.435 818.567 747.193C819.598 743.954 824.456 745.495 823.43 748.736Z" fill="white" fill-opacity="0.04"/>
<path d="M841.551 746.464C840.52 749.704 835.661 748.162 836.688 744.921C837.714 741.68 842.577 743.223 841.551 746.464Z" fill="white" fill-opacity="0.04"/>
<path d="M788.067 700.06C787.036 703.3 782.177 701.758 783.204 698.517C784.23 695.276 789.094 696.819 788.067 700.06Z" fill="white" fill-opacity="0.04"/>
<path d="M748.099 585.733C747.072 588.974 742.209 587.431 743.24 584.191C744.267 580.95 749.13 582.493 748.099 585.733Z" fill="white" fill-opacity="0.04"/>
<path d="M996.871 585.756C994.814 592.236 985.092 589.152 987.15 582.671C989.203 576.189 998.925 579.274 996.871 585.756Z" fill="white" fill-opacity="0.04"/>
<path d="M729.316 708.17C727.258 714.65 717.537 711.566 719.595 705.085C721.648 698.603 731.369 701.688 729.316 708.17Z" fill="white" fill-opacity="0.04"/>
<path d="M678.819 757.697C676.762 764.177 667.042 761.088 669.099 754.608C671.157 748.127 680.877 751.216 678.819 757.697Z" fill="white" fill-opacity="0.04"/>
<path d="M822.288 697.554C820.235 704.037 810.509 700.951 812.567 694.47C814.625 687.989 824.346 691.074 822.288 697.554Z" fill="white" fill-opacity="0.04"/>
<path d="M1252.73 796.678C1250.67 803.159 1240.95 800.075 1243 793.594C1245.06 787.113 1254.78 790.198 1252.73 796.678Z" fill="white" fill-opacity="0.04"/>
<path d="M1204.09 751.831C1203.06 755.072 1198.2 753.529 1199.23 750.29C1200.26 747.049 1205.12 748.592 1204.09 751.831Z" fill="white" fill-opacity="0.04"/>
<path d="M1163.31 833.892C1162.28 837.132 1157.42 835.595 1158.45 832.354C1159.47 829.113 1164.34 830.651 1163.31 833.892Z" fill="white" fill-opacity="0.04"/>
<path d="M1054.17 731.04C1053.15 734.281 1048.28 732.738 1049.32 729.498C1050.34 726.257 1055.2 727.799 1054.17 731.04Z" fill="white" fill-opacity="0.04"/>
<path d="M944.533 562.468C943.501 565.708 938.643 564.166 939.67 560.925C940.696 557.684 945.559 559.227 944.533 562.468Z" fill="white" fill-opacity="0.04"/>
<path d="M886.894 592.336C885.867 595.577 881.009 594.036 882.035 590.795C883.062 587.554 887.925 589.097 886.894 592.336Z" fill="white" fill-opacity="0.04"/>
<path d="M1093.92 660.701C1092.89 663.942 1088.03 662.399 1089.06 659.159C1090.08 655.918 1094.95 657.461 1093.92 660.701Z" fill="white" fill-opacity="0.04"/>
<path d="M1263.22 624.549C1262.19 627.79 1257.33 626.252 1258.36 623.011C1259.38 619.765 1264.25 621.308 1263.22 624.549Z" fill="white" fill-opacity="0.04"/>
<path d="M1232.14 625.458C1231.11 628.699 1226.25 627.157 1227.28 623.917C1228.31 620.676 1233.17 622.219 1232.14 625.458Z" fill="white" fill-opacity="0.04"/>
<path d="M1235.62 589.277C1234.59 592.518 1229.73 590.975 1230.76 587.734C1231.79 584.495 1236.64 586.036 1235.62 589.277Z" fill="white" fill-opacity="0.04"/>
<path d="M1231.17 611.727C1230.15 614.968 1225.28 613.425 1226.31 610.186C1227.34 606.945 1232.2 608.486 1231.17 611.727Z" fill="white" fill-opacity="0.04"/>
<path d="M1264.44 603.796C1263.41 607.037 1258.55 605.494 1259.58 602.255C1260.61 599.014 1265.47 600.557 1264.44 603.796Z" fill="white" fill-opacity="0.04"/>
<path d="M1170.24 668.861C1169.21 672.101 1164.35 670.56 1165.37 667.319C1166.41 664.079 1171.26 665.62 1170.24 668.861Z" fill="white" fill-opacity="0.04"/>
<path d="M1128.89 641.054C1127.86 644.295 1123 642.754 1124.03 639.513C1125.06 636.272 1129.92 637.814 1128.89 641.054Z" fill="white" fill-opacity="0.04"/>
<path d="M1156.06 603.947C1155.03 607.188 1150.17 605.645 1151.2 602.405C1152.23 599.164 1157.09 600.707 1156.06 603.947Z" fill="white" fill-opacity="0.04"/>
<path d="M1128.66 650.314C1127.63 653.555 1122.77 652.012 1123.8 648.772C1124.83 645.531 1129.68 647.073 1128.66 650.314Z" fill="white" fill-opacity="0.04"/>
<path d="M1067.27 630.854C1066.24 634.094 1061.38 632.552 1062.41 629.311C1063.44 626.072 1068.3 627.613 1067.27 630.854Z" fill="white" fill-opacity="0.04"/>
<path d="M974.268 734.208C973.242 737.449 968.379 735.906 969.41 732.666C970.436 729.425 975.295 730.967 974.268 734.208Z" fill="white" fill-opacity="0.04"/>
<path d="M964.407 710.55C963.38 713.791 958.522 712.249 959.549 709.008C960.575 705.767 965.438 707.31 964.407 710.55Z" fill="white" fill-opacity="0.04"/>
<path d="M982.533 708.266C981.501 711.505 976.643 709.964 977.67 706.723C978.696 703.482 983.559 705.025 982.533 708.266Z" fill="white" fill-opacity="0.04"/>
<path d="M929.017 661.877C927.991 665.118 923.132 663.577 924.159 660.336C925.185 657.095 930.049 658.638 929.017 661.877Z" fill="white" fill-opacity="0.04"/>
<path d="M823.492 615.016C822.465 618.257 817.6 616.719 818.632 613.479C819.658 610.238 824.518 611.775 823.492 615.016Z" fill="white" fill-opacity="0.04"/>
<path d="M839.07 574.482C838.044 577.723 833.18 576.18 834.207 572.939C835.238 569.699 840.097 571.241 839.07 574.482Z" fill="white" fill-opacity="0.04"/>
<path d="M889.065 547.542C888.039 550.783 883.177 549.236 884.209 545.996C885.235 542.755 890.097 544.303 889.065 547.542Z" fill="white" fill-opacity="0.04"/>
<path d="M858.674 453.643C857.648 456.884 852.784 455.341 853.811 452.1C854.842 448.86 859.701 450.401 858.674 453.643Z" fill="white" fill-opacity="0.04"/>
<path d="M1137.83 547.577C1135.78 554.057 1126.06 550.968 1128.11 544.488C1130.17 538.007 1139.89 541.096 1137.83 547.577Z" fill="white" fill-opacity="0.04"/>
<path d="M1018.99 833.535C1016.94 840.017 1007.22 836.928 1009.27 830.446C1011.33 823.965 1021.05 827.054 1018.99 833.535Z" fill="white" fill-opacity="0.04"/>
<path d="M870.283 669.979C868.23 676.461 858.508 673.377 860.561 666.895C862.619 660.414 872.341 663.499 870.283 669.979Z" fill="white" fill-opacity="0.04"/>
<path d="M819.786 719.506C817.728 725.987 808.008 722.898 810.066 716.417C812.123 709.937 821.843 713.026 819.786 719.506Z" fill="white" fill-opacity="0.04"/>
<path d="M963.255 659.364C961.197 665.845 951.475 662.76 953.533 656.28C955.591 649.799 965.312 652.883 963.255 659.364Z" fill="white" fill-opacity="0.04"/>
<path d="M842.432 496.414C840.374 502.895 830.653 499.81 832.71 493.33C834.768 486.849 844.49 489.933 842.432 496.414Z" fill="white" fill-opacity="0.04"/>
</g>
<g clip-path="url(#clip2_321_5)">
<path d="M492.966 1048.27C495.62 1054.53 486.229 1058.51 483.575 1052.25C480.917 1045.99 490.312 1042.01 492.966 1048.27Z" fill="white" fill-opacity="0.04"/>
<path d="M554.38 1052.69C555.705 1055.82 551.012 1057.81 549.683 1054.68C548.358 1051.55 553.051 1049.56 554.38 1052.69Z" fill="white" fill-opacity="0.04"/>
<path d="M531.946 963.884C533.275 967.014 528.583 969.004 527.254 965.875C525.925 962.746 530.622 960.753 531.946 963.884Z" fill="white" fill-opacity="0.04"/>
<path d="M681.74 970.969C683.065 974.1 678.372 976.09 677.043 972.961C675.714 969.832 680.411 967.839 681.74 970.969Z" fill="white" fill-opacity="0.04"/>
<path d="M874.711 1027.59C876.04 1030.72 871.343 1032.71 870.019 1029.58C868.689 1026.45 873.382 1024.46 874.711 1027.59Z" fill="white" fill-opacity="0.04"/>
<path d="M899.035 967.44C900.364 970.569 895.667 972.561 894.342 969.43C893.013 966.301 897.71 964.309 899.035 967.44Z" fill="white" fill-opacity="0.04"/>
<path d="M697.343 1050.22C698.674 1053.35 693.977 1055.35 692.653 1052.22C691.324 1049.09 696.014 1047.09 697.343 1050.22Z" fill="white" fill-opacity="0.04"/>
<path d="M592.283 1187.79C593.612 1190.92 588.913 1192.91 587.589 1189.78C586.264 1186.65 590.958 1184.66 592.283 1187.79Z" fill="white" fill-opacity="0.04"/>
<path d="M615.317 1166.94C616.641 1170.07 611.949 1172.06 610.62 1168.93C609.291 1165.8 613.987 1163.81 615.317 1166.94Z" fill="white" fill-opacity="0.04"/>
<path d="M636.198 1196.63C637.527 1199.76 632.83 1201.75 631.505 1198.62C630.176 1195.49 634.869 1193.5 636.198 1196.63Z" fill="white" fill-opacity="0.04"/>
<path d="M624.989 1176.68C626.318 1179.81 621.626 1181.8 620.297 1178.67C618.968 1175.54 623.665 1173.55 624.989 1176.68Z" fill="white" fill-opacity="0.04"/>
<path d="M604.87 1204.37C606.194 1207.5 601.502 1209.49 600.173 1206.36C598.848 1203.23 603.541 1201.24 604.87 1204.37Z" fill="white" fill-opacity="0.04"/>
<path d="M634.084 1093.66C635.413 1096.79 630.716 1098.79 629.391 1095.65C628.062 1092.53 632.759 1090.53 634.084 1093.66Z" fill="white" fill-opacity="0.04"/>
<path d="M683.549 1087.92C684.874 1091.05 680.182 1093.04 678.853 1089.91C677.528 1086.78 682.22 1084.79 683.549 1087.92Z" fill="white" fill-opacity="0.04"/>
<path d="M687.086 1133.73C688.416 1136.86 683.719 1138.86 682.39 1135.73C681.065 1132.6 685.757 1130.61 687.086 1133.73Z" fill="white" fill-opacity="0.04"/>
<path d="M677.72 1080.71C679.049 1083.84 674.356 1085.83 673.027 1082.7C671.698 1079.57 676.395 1077.58 677.72 1080.71Z" fill="white" fill-opacity="0.04"/>
<path d="M736.998 1055.55C738.327 1058.68 733.634 1060.67 732.305 1057.54C730.976 1054.41 735.673 1052.42 736.998 1055.55Z" fill="white" fill-opacity="0.04"/>
<path d="M740.371 916.571C741.695 919.702 737.003 921.693 735.674 918.563C734.345 915.434 739.042 913.442 740.371 916.571Z" fill="white" fill-opacity="0.04"/>
<path d="M763.265 928.088C764.592 931.223 759.897 933.209 758.568 930.08C757.244 926.949 761.936 924.958 763.265 928.088Z" fill="white" fill-opacity="0.04"/>
<path d="M750.987 941.616C752.316 944.745 747.619 946.738 746.29 943.608C744.961 940.479 749.658 938.487 750.987 941.616Z" fill="white" fill-opacity="0.04"/>
<path d="M821.794 942.054C823.119 945.185 818.424 947.171 817.095 944.042C815.771 940.911 820.469 938.923 821.794 942.054Z" fill="white" fill-opacity="0.04"/>
<path d="M926.525 1002.86C927.855 1005.99 923.158 1007.98 921.833 1004.85C920.504 1001.72 925.201 999.726 926.525 1002.86Z" fill="white" fill-opacity="0.04"/>
<path d="M742.294 1162.7C744.952 1168.96 735.563 1172.94 732.904 1166.68C730.25 1160.42 739.64 1156.44 742.294 1162.7Z" fill="white" fill-opacity="0.04"/>
<path d="M865.824 895.655C868.478 901.915 859.089 905.898 856.43 899.64C853.776 893.38 863.166 889.397 865.824 895.655Z" fill="white" fill-opacity="0.04"/>
<path d="M871.953 825.204C874.607 831.465 865.218 835.447 862.56 829.189C859.906 822.929 869.295 818.946 871.953 825.204Z" fill="white" fill-opacity="0.04"/>
<path d="M802.124 964.226C804.778 970.487 795.388 974.47 792.734 968.209C790.081 961.949 799.47 957.966 802.124 964.226Z" fill="white" fill-opacity="0.04"/>
<path d="M581.27 1111.16C583.924 1117.42 574.535 1121.41 571.881 1115.15C569.227 1108.89 578.616 1104.9 581.27 1111.16Z" fill="white" fill-opacity="0.04"/>
<path d="M642.687 1115.59C644.016 1118.72 639.321 1120.72 637.992 1117.59C636.666 1114.45 641.358 1112.46 642.687 1115.59Z" fill="white" fill-opacity="0.04"/>
<path d="M620.249 1026.77C621.578 1029.9 616.881 1031.9 615.557 1028.76C614.228 1025.64 618.92 1023.64 620.249 1026.77Z" fill="white" fill-opacity="0.04"/>
<path d="M770.054 1033.85C771.383 1036.98 766.686 1038.98 765.357 1035.85C764.033 1032.72 768.725 1030.72 770.054 1033.85Z" fill="white" fill-opacity="0.04"/>
<path d="M963.007 1090.5C964.336 1093.63 959.637 1095.61 958.313 1092.48C956.983 1089.35 961.682 1087.37 963.007 1090.5Z" fill="white" fill-opacity="0.04"/>
<path d="M987.342 1030.34C988.667 1033.47 983.975 1035.46 982.645 1032.33C981.321 1029.2 986.013 1027.21 987.342 1030.34Z" fill="white" fill-opacity="0.04"/>
<path d="M785.658 1113.11C786.987 1116.23 782.29 1118.23 780.965 1115.1C779.636 1111.97 784.333 1109.97 785.658 1113.11Z" fill="white" fill-opacity="0.04"/>
<path d="M680.616 1250.66C681.94 1253.79 677.248 1255.78 675.919 1252.65C674.594 1249.52 679.287 1247.53 680.616 1250.66Z" fill="white" fill-opacity="0.04"/>
<path d="M703.62 1229.83C704.949 1232.96 700.252 1234.95 698.927 1231.82C697.598 1228.69 702.295 1226.7 703.62 1229.83Z" fill="white" fill-opacity="0.04"/>
<path d="M724.512 1259.52C725.841 1262.65 721.144 1264.64 719.819 1261.51C718.49 1258.38 723.187 1256.39 724.512 1259.52Z" fill="white" fill-opacity="0.04"/>
<path d="M713.286 1239.59C714.61 1242.72 709.918 1244.71 708.589 1241.58C707.264 1238.45 711.957 1236.46 713.286 1239.59Z" fill="white" fill-opacity="0.04"/>
<path d="M693.184 1267.25C694.513 1270.38 689.816 1272.38 688.492 1269.25C687.163 1266.12 691.855 1264.13 693.184 1267.25Z" fill="white" fill-opacity="0.04"/>
<path d="M722.382 1156.54C723.711 1159.67 719.014 1161.66 717.69 1158.53C716.36 1155.4 721.057 1153.41 722.382 1156.54Z" fill="white" fill-opacity="0.04"/>
<path d="M771.864 1150.8C773.188 1153.93 768.496 1155.92 767.167 1152.79C765.842 1149.66 770.535 1147.67 771.864 1150.8Z" fill="white" fill-opacity="0.04"/>
<path d="M775.385 1196.61C776.714 1199.74 772.022 1201.73 770.692 1198.6C769.363 1195.47 774.06 1193.48 775.385 1196.61Z" fill="white" fill-opacity="0.04"/>
<path d="M766.029 1143.59C767.358 1146.71 762.662 1148.71 761.337 1145.58C760.008 1142.45 764.705 1140.45 766.029 1143.59Z" fill="white" fill-opacity="0.04"/>
<path d="M825.307 1118.42C826.632 1121.55 821.939 1123.54 820.61 1120.41C819.286 1117.28 823.978 1115.29 825.307 1118.42Z" fill="white" fill-opacity="0.04"/>
<path d="M828.677 979.47C830.002 982.601 825.31 984.591 823.98 981.462C822.656 978.331 827.348 976.34 828.677 979.47Z" fill="white" fill-opacity="0.04"/>
<path d="M851.563 990.965C852.892 994.094 848.195 996.086 846.866 992.957C845.542 989.826 850.234 987.835 851.563 990.965Z" fill="white" fill-opacity="0.04"/>
<path d="M839.296 1004.49C840.625 1007.62 835.928 1009.61 834.604 1006.48C833.274 1003.35 837.971 1001.36 839.296 1004.49Z" fill="white" fill-opacity="0.04"/>
<path d="M910.104 1004.93C911.433 1008.06 906.74 1010.05 905.411 1006.92C904.082 1003.79 908.779 1001.8 910.104 1004.93Z" fill="white" fill-opacity="0.04"/>
<path d="M1020.71 971.848C1022.04 974.977 1017.34 976.97 1016.02 973.84C1014.69 970.709 1019.38 968.719 1020.71 971.848Z" fill="white" fill-opacity="0.04"/>
<path d="M1035.29 1012.72C1036.62 1015.85 1031.93 1017.84 1030.6 1014.71C1029.27 1011.59 1033.96 1009.6 1035.29 1012.72Z" fill="white" fill-opacity="0.04"/>
<path d="M1014.84 1065.74C1016.17 1068.87 1011.47 1070.86 1010.15 1067.73C1008.82 1064.6 1013.51 1062.61 1014.84 1065.74Z" fill="white" fill-opacity="0.04"/>
<path d="M1098.99 1117.32C1100.32 1120.45 1095.62 1122.44 1094.29 1119.31C1092.97 1116.18 1097.66 1114.19 1098.99 1117.32Z" fill="white" fill-opacity="0.04"/>
<path d="M830.597 1225.59C833.255 1231.85 823.866 1235.83 821.208 1229.57C818.554 1223.31 827.943 1219.33 830.597 1225.59Z" fill="white" fill-opacity="0.04"/>
<path d="M734.779 931.124C737.433 937.384 728.042 941.363 725.388 935.103C722.734 928.843 732.125 924.864 734.779 931.124Z" fill="white" fill-opacity="0.04"/>
<path d="M954.129 958.548C956.782 964.808 947.393 968.791 944.739 962.531C942.085 956.271 951.475 952.288 954.129 958.548Z" fill="white" fill-opacity="0.04"/>
<path d="M960.256 888.094C962.914 894.352 953.525 898.335 950.867 892.077C948.213 885.817 957.602 881.834 960.256 888.094Z" fill="white" fill-opacity="0.04"/>
<path d="M890.438 1027.11C893.091 1033.37 883.7 1037.35 881.046 1031.09C878.393 1024.83 887.784 1020.85 890.438 1027.11Z" fill="white" fill-opacity="0.04"/>
<path d="M1088.22 1072.24C1090.88 1078.5 1081.49 1082.48 1078.83 1076.22C1076.18 1069.96 1085.57 1065.98 1088.22 1072.24Z" fill="white" fill-opacity="0.04"/>
<path d="M1061.24 1296.6C1063.89 1302.86 1054.5 1306.84 1051.85 1300.58C1049.19 1294.32 1058.58 1290.34 1061.24 1296.6Z" fill="white" fill-opacity="0.04"/>
<path d="M995.128 1294.16C996.453 1297.29 991.76 1299.28 990.431 1296.15C989.106 1293.02 993.799 1291.03 995.128 1294.16Z" fill="white" fill-opacity="0.04"/>
<path d="M1017.55 1382.99C1018.88 1386.12 1014.19 1388.11 1012.86 1384.98C1011.53 1381.86 1016.22 1379.86 1017.55 1382.99Z" fill="white" fill-opacity="0.04"/>
<path d="M867.75 1375.9C869.079 1379.03 864.382 1381.02 863.058 1377.89C861.729 1374.76 866.425 1372.77 867.75 1375.9Z" fill="white" fill-opacity="0.04"/>
<path d="M674.797 1319.26C676.122 1322.39 671.43 1324.38 670.101 1321.25C668.776 1318.12 673.468 1316.13 674.797 1319.26Z" fill="white" fill-opacity="0.04"/>
<path d="M650.455 1379.43C651.784 1382.56 647.087 1384.55 645.763 1381.42C644.434 1378.29 649.13 1376.3 650.455 1379.43Z" fill="white" fill-opacity="0.04"/>
<path d="M852.158 1296.64C853.487 1299.77 848.79 1301.76 847.465 1298.63C846.136 1295.5 850.829 1293.51 852.158 1296.64Z" fill="white" fill-opacity="0.04"/>
<path d="M957.193 1159.1C958.522 1162.23 953.825 1164.23 952.496 1161.1C951.171 1157.97 955.864 1155.97 957.193 1159.1Z" fill="white" fill-opacity="0.04"/>
<path d="M934.191 1179.91C935.521 1183.04 930.824 1185.03 929.495 1181.9C928.17 1178.77 932.862 1176.78 934.191 1179.91Z" fill="white" fill-opacity="0.04"/>
<path d="M913.285 1150.25C914.61 1153.38 909.917 1155.37 908.593 1152.24C907.264 1149.11 911.961 1147.12 913.285 1150.25Z" fill="white" fill-opacity="0.04"/>
<path d="M924.505 1170.2C925.83 1173.33 921.137 1175.32 919.813 1172.19C918.483 1169.06 923.18 1167.06 924.505 1170.2Z" fill="white" fill-opacity="0.04"/>
<path d="M944.627 1142.48C945.956 1145.61 941.264 1147.6 939.935 1144.47C938.605 1141.34 943.302 1139.35 944.627 1142.48Z" fill="white" fill-opacity="0.04"/>
<path d="M915.414 1253.19C916.743 1256.32 912.046 1258.31 910.721 1255.18C909.392 1252.05 914.085 1250.06 915.414 1253.19Z" fill="white" fill-opacity="0.04"/>
<path d="M865.934 1258.97C867.263 1262.1 862.566 1264.09 861.237 1260.96C859.912 1257.83 864.605 1255.84 865.934 1258.97Z" fill="white" fill-opacity="0.04"/>
<path d="M862.426 1213.12C863.751 1216.25 859.059 1218.24 857.73 1215.12C856.4 1211.99 861.097 1209.99 862.426 1213.12Z" fill="white" fill-opacity="0.04"/>
<path d="M871.761 1266.2C873.09 1269.33 868.393 1271.32 867.064 1268.19C865.74 1265.06 870.432 1263.07 871.761 1266.2Z" fill="white" fill-opacity="0.04"/>
<path d="M812.504 1291.31C813.833 1294.44 809.136 1296.44 807.812 1293.3C806.482 1290.17 811.175 1288.18 812.504 1291.31Z" fill="white" fill-opacity="0.04"/>
<path d="M809.12 1430.3C810.445 1433.43 805.752 1435.42 804.423 1432.29C803.099 1429.16 807.791 1427.17 809.12 1430.3Z" fill="white" fill-opacity="0.04"/>
<path d="M786.237 1418.78C787.562 1421.91 782.869 1423.9 781.54 1420.77C780.215 1417.64 784.908 1415.65 786.237 1418.78Z" fill="white" fill-opacity="0.04"/>
<path d="M798.52 1405.26C799.844 1408.39 795.152 1410.38 793.823 1407.25C792.494 1404.12 797.191 1402.13 798.52 1405.26Z" fill="white" fill-opacity="0.04"/>
<path d="M727.712 1404.82C729.037 1407.95 724.344 1409.94 723.015 1406.81C721.686 1403.68 726.383 1401.69 727.712 1404.82Z" fill="white" fill-opacity="0.04"/>
<path d="M622.976 1344C624.305 1347.13 619.608 1349.13 618.283 1346C616.954 1342.87 621.651 1340.87 622.976 1344Z" fill="white" fill-opacity="0.04"/>
<path d="M811.906 1182.16C814.56 1188.42 805.171 1192.41 802.517 1186.15C799.858 1179.89 809.248 1175.9 811.906 1182.16Z" fill="white" fill-opacity="0.04"/>
<path d="M688.374 1449.2C691.028 1455.46 681.639 1459.45 678.985 1453.19C676.327 1446.93 685.716 1442.94 688.374 1449.2Z" fill="white" fill-opacity="0.04"/>
<path d="M682.251 1519.67C684.905 1525.93 675.514 1529.91 672.86 1523.65C670.206 1517.39 679.597 1513.41 682.251 1519.67Z" fill="white" fill-opacity="0.04"/>
<path d="M752.07 1380.65C754.728 1386.91 745.334 1390.89 742.68 1384.63C740.026 1378.37 749.416 1374.39 752.07 1380.65Z" fill="white" fill-opacity="0.04"/>
<path d="M1143.43 1175.87C1146.09 1182.13 1136.7 1186.11 1134.04 1179.85C1131.39 1173.59 1140.78 1169.61 1143.43 1175.87Z" fill="white" fill-opacity="0.04"/>
<path d="M1077.32 1173.45C1078.65 1176.58 1073.95 1178.58 1072.63 1175.44C1071.3 1172.32 1076 1170.32 1077.32 1173.45Z" fill="white" fill-opacity="0.04"/>
<path d="M1099.75 1262.3C1101.07 1265.43 1096.38 1267.43 1095.05 1264.3C1093.72 1261.17 1098.42 1259.17 1099.75 1262.3Z" fill="white" fill-opacity="0.04"/>
<path d="M949.948 1255.21C951.277 1258.34 946.58 1260.33 945.255 1257.2C943.926 1254.07 948.619 1252.08 949.948 1255.21Z" fill="white" fill-opacity="0.04"/>
<path d="M757.009 1198.53C758.334 1201.66 753.641 1203.65 752.312 1200.52C750.983 1197.39 755.68 1195.4 757.009 1198.53Z" fill="white" fill-opacity="0.04"/>
<path d="M732.671 1258.71C734.001 1261.84 729.308 1263.83 727.979 1260.71C726.65 1257.58 731.347 1255.58 732.671 1258.71Z" fill="white" fill-opacity="0.04"/>
<path d="M934.363 1175.93C935.692 1179.06 930.995 1181.06 929.67 1177.92C928.341 1174.8 933.038 1172.8 934.363 1175.93Z" fill="white" fill-opacity="0.04"/>
<path d="M1039.41 1038.33C1040.74 1041.45 1036.04 1043.45 1034.71 1040.32C1033.38 1037.19 1038.08 1035.2 1039.41 1038.33Z" fill="white" fill-opacity="0.04"/>
<path d="M1016.4 1059.24C1017.73 1062.37 1013.03 1064.36 1011.71 1061.23C1010.38 1058.1 1015.07 1056.11 1016.4 1059.24Z" fill="white" fill-opacity="0.04"/>
<path d="M995.5 1029.5C996.829 1032.63 992.132 1034.62 990.803 1031.49C989.478 1028.36 994.17 1026.37 995.5 1029.5Z" fill="white" fill-opacity="0.04"/>
<path d="M1006.73 1049.44C1008.06 1052.57 1003.36 1054.56 1002.04 1051.43C1000.71 1048.3 1005.4 1046.31 1006.73 1049.44Z" fill="white" fill-opacity="0.04"/>
<path d="M1026.83 1021.77C1028.16 1024.9 1023.46 1026.9 1022.14 1023.76C1020.81 1020.64 1025.51 1018.64 1026.83 1021.77Z" fill="white" fill-opacity="0.04"/>
<path d="M997.629 1132.47C998.954 1135.61 994.262 1137.6 992.933 1134.47C991.608 1131.34 996.3 1129.35 997.629 1132.47Z" fill="white" fill-opacity="0.04"/>
<path d="M948.138 1138.26C949.467 1141.39 944.775 1143.38 943.446 1140.25C942.117 1137.12 946.814 1135.13 948.138 1138.26Z" fill="white" fill-opacity="0.04"/>
<path d="M944.627 1092.4C945.956 1095.53 941.259 1097.53 939.934 1094.39C938.605 1091.27 943.302 1089.27 944.627 1092.4Z" fill="white" fill-opacity="0.04"/>
<path d="M953.986 1145.44C955.316 1148.57 950.619 1150.56 949.294 1147.43C947.965 1144.3 952.657 1142.31 953.986 1145.44Z" fill="white" fill-opacity="0.04"/>
<path d="M894.709 1170.61C896.033 1173.74 891.341 1175.73 890.012 1172.6C888.687 1169.47 893.379 1167.48 894.709 1170.61Z" fill="white" fill-opacity="0.04"/>
<path d="M891.33 1309.6C892.659 1312.73 887.962 1314.72 886.637 1311.59C885.308 1308.46 890.001 1306.47 891.33 1309.6Z" fill="white" fill-opacity="0.04"/>
<path d="M868.448 1298.05C869.777 1301.18 865.085 1303.17 863.756 1300.04C862.427 1296.91 867.124 1294.92 868.448 1298.05Z" fill="white" fill-opacity="0.04"/>
<path d="M880.727 1284.52C882.051 1287.66 877.359 1289.65 876.03 1286.52C874.701 1283.39 879.398 1281.4 880.727 1284.52Z" fill="white" fill-opacity="0.04"/>
<path d="M809.906 1284.12C811.235 1287.25 806.542 1289.24 805.213 1286.11C803.884 1282.98 808.581 1280.99 809.906 1284.12Z" fill="white" fill-opacity="0.04"/>
<path d="M699.281 1317.19C700.61 1320.32 695.915 1322.32 694.59 1319.18C693.261 1316.06 697.952 1314.06 699.281 1317.19Z" fill="white" fill-opacity="0.04"/>
<path d="M684.738 1276.27C686.067 1279.4 681.371 1281.39 680.041 1278.26C678.717 1275.13 683.409 1273.14 684.738 1276.27Z" fill="white" fill-opacity="0.04"/>
<path d="M705.176 1223.29C706.505 1226.41 701.807 1228.4 700.482 1225.27C699.153 1222.14 703.852 1220.15 705.176 1223.29Z" fill="white" fill-opacity="0.04"/>
<path d="M621.003 1171.75C622.332 1174.88 617.635 1176.87 616.306 1173.75C614.981 1170.61 619.674 1168.62 621.003 1171.75Z" fill="white" fill-opacity="0.04"/>
<path d="M894.111 1061.45C896.765 1067.71 887.374 1071.69 884.72 1065.43C882.066 1059.17 891.457 1055.19 894.111 1061.45Z" fill="white" fill-opacity="0.04"/>
<path d="M989.92 1355.93C992.578 1362.19 983.187 1366.17 980.528 1359.91C977.875 1353.65 987.266 1349.67 989.92 1355.93Z" fill="white" fill-opacity="0.04"/>
<path d="M770.575 1328.48C773.233 1334.74 763.844 1338.73 761.186 1332.47C758.532 1326.21 767.921 1322.22 770.575 1328.48Z" fill="white" fill-opacity="0.04"/>
<path d="M764.451 1398.95C767.105 1405.21 757.714 1409.19 755.06 1402.93C752.406 1396.67 761.797 1392.69 764.451 1398.95Z" fill="white" fill-opacity="0.04"/>
<path d="M834.27 1259.93C836.924 1266.19 827.534 1270.18 824.88 1263.91C822.227 1257.65 831.616 1253.67 834.27 1259.93Z" fill="white" fill-opacity="0.04"/>
<path d="M636.497 1214.8C639.151 1221.06 629.762 1225.04 627.108 1218.78C624.454 1212.52 633.843 1208.54 636.497 1214.8Z" fill="white" fill-opacity="0.04"/>
</g>
<g clip-path="url(#clip3_321_5)">
<path d="M1537.38 1210.41C1544.01 1208.93 1546.24 1218.88 1539.6 1220.36C1532.96 1221.85 1530.74 1211.89 1537.38 1210.41Z" fill="white" fill-opacity="0.04"/>
<path d="M1552.79 1150.8C1556.11 1150.06 1557.22 1155.03 1553.91 1155.78C1550.59 1156.52 1549.48 1151.54 1552.79 1150.8Z" fill="white" fill-opacity="0.04"/>
<path d="M1461.4 1156.86C1464.72 1156.11 1465.83 1161.09 1462.51 1161.83C1459.19 1162.57 1458.08 1157.59 1461.4 1156.86Z" fill="white" fill-opacity="0.04"/>
<path d="M1495.37 1010.79C1498.69 1010.05 1499.8 1015.03 1496.48 1015.77C1493.16 1016.52 1492.05 1011.54 1495.37 1010.79Z" fill="white" fill-opacity="0.04"/>
<path d="M1585.85 831.189C1589.17 830.446 1590.28 835.425 1586.96 836.164C1583.64 836.907 1582.53 831.933 1585.85 831.189Z" fill="white" fill-opacity="0.04"/>
<path d="M1531.07 796.421C1534.38 795.678 1535.5 800.657 1532.18 801.396C1528.86 802.139 1527.75 797.16 1531.07 796.421Z" fill="white" fill-opacity="0.04"/>
<path d="M1576.14 1009.73C1579.46 1008.99 1580.57 1013.97 1577.25 1014.7C1573.93 1015.45 1572.82 1010.47 1576.14 1009.73Z" fill="white" fill-opacity="0.04"/>
<path d="M1692.52 1137.87C1695.84 1137.12 1696.94 1142.1 1693.63 1142.84C1690.31 1143.58 1689.2 1138.61 1692.52 1137.87Z" fill="white" fill-opacity="0.04"/>
<path d="M1676.16 1111.45C1679.47 1110.71 1680.59 1115.69 1677.27 1116.43C1673.95 1117.18 1672.84 1112.2 1676.16 1111.45Z" fill="white" fill-opacity="0.04"/>
<path d="M1709.13 1096.27C1712.44 1095.52 1713.56 1100.5 1710.24 1101.24C1706.92 1101.98 1705.81 1097.01 1709.13 1096.27Z" fill="white" fill-opacity="0.04"/>
<path d="M1687.48 1103.69C1690.8 1102.95 1691.91 1107.93 1688.6 1108.67C1685.28 1109.41 1684.17 1104.43 1687.48 1103.69Z" fill="white" fill-opacity="0.04"/>
<path d="M1711.09 1128.48C1714.41 1127.74 1715.52 1132.71 1712.2 1133.45C1708.89 1134.19 1707.77 1129.22 1711.09 1128.48Z" fill="white" fill-opacity="0.04"/>
<path d="M1607.46 1079.79C1610.78 1079.04 1611.9 1084.02 1608.58 1084.76C1605.26 1085.5 1604.15 1080.52 1607.46 1079.79Z" fill="white" fill-opacity="0.04"/>
<path d="M1610.73 1030.09C1614.04 1029.35 1615.16 1034.33 1611.84 1035.07C1608.52 1035.81 1607.41 1030.84 1610.73 1030.09Z" fill="white" fill-opacity="0.04"/>
<path d="M1656.43 1034.87C1659.75 1034.13 1660.86 1039.11 1657.55 1039.85C1654.23 1040.59 1653.11 1035.62 1656.43 1034.87Z" fill="white" fill-opacity="0.04"/>
<path d="M1602.59 1034.53C1605.91 1033.79 1607.02 1038.76 1603.7 1039.5C1600.38 1040.25 1599.27 1035.27 1602.59 1034.53Z" fill="white" fill-opacity="0.04"/>
<path d="M1588.52 971.687C1591.84 970.943 1592.95 975.918 1589.64 976.661C1586.32 977.404 1585.21 972.425 1588.52 971.687Z" fill="white" fill-opacity="0.04"/>
<path d="M1452.43 943.317C1455.75 942.579 1456.86 947.553 1453.54 948.296C1450.23 949.04 1449.11 944.06 1452.43 943.317Z" fill="white" fill-opacity="0.04"/>
<path d="M1467.89 922.874C1471.21 922.134 1472.32 927.11 1469 927.853C1465.68 928.592 1464.57 923.617 1467.89 922.874Z" fill="white" fill-opacity="0.04"/>
<path d="M1478.98 937.389C1482.3 936.646 1483.41 941.625 1480.09 942.368C1476.77 943.112 1475.66 938.132 1478.98 937.389Z" fill="white" fill-opacity="0.04"/>
<path d="M1492.17 867.822C1495.49 867.083 1496.6 872.058 1493.28 872.801C1489.96 873.54 1488.85 868.56 1492.17 867.822Z" fill="white" fill-opacity="0.04"/>
<path d="M1570.86 775.765C1574.18 775.022 1575.29 780.001 1571.97 780.739C1568.65 781.483 1567.54 776.504 1570.86 775.765Z" fill="white" fill-opacity="0.04"/>
<path d="M1694.87 985.791C1701.51 984.305 1703.73 994.258 1697.1 995.745C1690.46 997.227 1688.24 987.273 1694.87 985.791Z" fill="white" fill-opacity="0.04"/>
<path d="M1454.47 816.149C1461.11 814.667 1463.33 824.62 1456.7 826.107C1450.06 827.589 1447.84 817.635 1454.47 816.149Z" fill="white" fill-opacity="0.04"/>
<path d="M1386.28 797.421C1392.91 795.939 1395.14 805.892 1388.5 807.379C1381.87 808.861 1379.64 798.908 1386.28 797.421Z" fill="white" fill-opacity="0.04"/>
<path d="M1510.44 891.166C1517.07 889.684 1519.3 899.638 1512.66 901.12C1506.03 902.602 1503.8 892.648 1510.44 891.166Z" fill="white" fill-opacity="0.04"/>
<path d="M1615.16 1134.89C1621.79 1133.41 1624.02 1143.36 1617.38 1144.84C1610.75 1146.32 1608.52 1136.37 1615.16 1134.89Z" fill="white" fill-opacity="0.04"/>
<path d="M1630.58 1075.27C1633.9 1074.53 1635.02 1079.51 1631.7 1080.25C1628.38 1080.99 1627.27 1076.02 1630.58 1075.27Z" fill="white" fill-opacity="0.04"/>
<path d="M1539.18 1081.34C1542.49 1080.59 1543.61 1085.57 1540.29 1086.31C1536.97 1087.05 1535.86 1082.08 1539.18 1081.34Z" fill="white" fill-opacity="0.04"/>
<path d="M1573.14 935.261C1576.46 934.517 1577.57 939.496 1574.26 940.24C1570.94 940.978 1569.83 936.004 1573.14 935.261Z" fill="white" fill-opacity="0.04"/>
<path d="M1663.64 755.678C1666.96 754.935 1668.06 759.915 1664.75 760.654C1661.43 761.397 1660.32 756.417 1663.64 755.678Z" fill="white" fill-opacity="0.04"/>
<path d="M1608.85 720.898C1612.17 720.16 1613.29 725.134 1609.97 725.877C1606.65 726.616 1605.54 721.642 1608.85 720.898Z" fill="white" fill-opacity="0.04"/>
<path d="M1653.91 934.198C1657.23 933.455 1658.34 938.434 1655.02 939.172C1651.7 939.916 1650.59 934.936 1653.91 934.198Z" fill="white" fill-opacity="0.04"/>
<path d="M1770.28 1062.31C1773.59 1061.58 1774.71 1066.55 1771.39 1067.29C1768.07 1068.03 1766.96 1063.06 1770.28 1062.31Z" fill="white" fill-opacity="0.04"/>
<path d="M1753.93 1035.93C1757.25 1035.19 1758.36 1040.17 1755.05 1040.91C1751.73 1041.65 1750.61 1036.67 1753.93 1035.93Z" fill="white" fill-opacity="0.04"/>
<path d="M1786.9 1020.73C1790.22 1019.99 1791.33 1024.97 1788.01 1025.71C1784.7 1026.45 1783.58 1021.47 1786.9 1020.73Z" fill="white" fill-opacity="0.04"/>
<path d="M1765.28 1028.18C1768.59 1027.45 1769.71 1032.42 1766.39 1033.16C1763.07 1033.9 1761.96 1028.93 1765.28 1028.18Z" fill="white" fill-opacity="0.04"/>
<path d="M1788.86 1052.94C1792.18 1052.2 1793.3 1057.18 1789.98 1057.92C1786.66 1058.66 1785.55 1053.69 1788.86 1052.94Z" fill="white" fill-opacity="0.04"/>
<path d="M1685.23 1004.27C1688.55 1003.52 1689.66 1008.5 1686.34 1009.24C1683.02 1009.98 1681.91 1005.01 1685.23 1004.27Z" fill="white" fill-opacity="0.04"/>
<path d="M1688.5 954.561C1691.82 953.822 1692.93 958.796 1689.61 959.54C1686.3 960.278 1685.18 955.304 1688.5 954.561Z" fill="white" fill-opacity="0.04"/>
<path d="M1734.2 959.355C1737.51 958.612 1738.63 963.586 1735.31 964.33C1731.99 965.073 1730.88 960.094 1734.2 959.355Z" fill="white" fill-opacity="0.04"/>
<path d="M1680.35 958.999C1683.67 958.256 1684.78 963.235 1681.46 963.973C1678.15 964.717 1677.03 959.738 1680.35 958.999Z" fill="white" fill-opacity="0.04"/>
<path d="M1666.29 896.156C1669.6 895.418 1670.72 900.392 1667.4 901.135C1664.08 901.874 1662.97 896.9 1666.29 896.156Z" fill="white" fill-opacity="0.04"/>
<path d="M1530.22 867.795C1533.53 867.056 1534.65 872.03 1531.33 872.774C1528.01 873.512 1526.9 868.538 1530.22 867.795Z" fill="white" fill-opacity="0.04"/>
<path d="M1545.65 847.356C1548.97 846.613 1550.08 851.592 1546.76 852.335C1543.44 853.074 1542.33 848.099 1545.65 847.356Z" fill="white" fill-opacity="0.04"/>
<path d="M1556.74 861.86C1560.06 861.116 1561.17 866.095 1557.85 866.834C1554.53 867.577 1553.42 862.598 1556.74 861.86Z" fill="white" fill-opacity="0.04"/>
<path d="M1569.94 792.291C1573.25 791.548 1574.36 796.523 1571.05 797.266C1567.73 798.009 1566.62 793.03 1569.94 792.291Z" fill="white" fill-opacity="0.04"/>
<path d="M1557.33 677.531C1560.65 676.788 1561.77 681.767 1558.45 682.51C1555.13 683.249 1554.02 678.275 1557.33 677.531Z" fill="white" fill-opacity="0.04"/>
<path d="M1600.17 670.559C1603.49 669.816 1604.6 674.79 1601.28 675.534C1597.96 676.277 1596.85 671.303 1600.17 670.559Z" fill="white" fill-opacity="0.04"/>
<path d="M1648.63 700.232C1651.95 699.489 1653.06 704.468 1649.75 705.207C1646.43 705.95 1645.32 700.976 1648.63 700.232Z" fill="white" fill-opacity="0.04"/>
<path d="M1714.54 626.756C1717.86 626.017 1718.96 630.997 1715.65 631.736C1712.33 632.474 1711.22 627.499 1714.54 626.756Z" fill="white" fill-opacity="0.04"/>
<path d="M1772.65 910.271C1779.29 908.784 1781.51 918.737 1774.88 920.224C1768.24 921.706 1766.01 911.753 1772.65 910.271Z" fill="white" fill-opacity="0.04"/>
<path d="M1465.74 951.44C1472.37 949.958 1474.59 959.913 1467.96 961.395C1461.32 962.877 1459.1 952.922 1465.74 951.44Z" fill="white" fill-opacity="0.04"/>
<path d="M1532.25 740.627C1538.89 739.145 1541.11 749.099 1534.48 750.581C1527.84 752.063 1525.61 742.109 1532.25 740.627Z" fill="white" fill-opacity="0.04"/>
<path d="M1464.06 721.9C1470.69 720.414 1472.92 730.367 1466.28 731.854C1459.64 733.336 1457.42 723.382 1464.06 721.9Z" fill="white" fill-opacity="0.04"/>
<path d="M1588.21 815.634C1594.85 814.152 1597.07 824.106 1590.43 825.588C1583.8 827.07 1581.57 817.116 1588.21 815.634Z" fill="white" fill-opacity="0.04"/>
<path d="M1668.25 629.224C1674.89 627.742 1677.11 637.695 1670.47 639.177C1663.84 640.659 1661.61 630.706 1668.25 629.224Z" fill="white" fill-opacity="0.04"/>
<path d="M1884.07 696.208C1890.71 694.726 1892.93 704.679 1886.3 706.161C1879.66 707.648 1877.44 697.695 1884.07 696.208Z" fill="white" fill-opacity="0.04"/>
<path d="M1869.75 760.794C1873.07 760.055 1874.18 765.03 1870.87 765.773C1867.55 766.512 1866.44 761.537 1869.75 760.794Z" fill="white" fill-opacity="0.04"/>
<path d="M1836.7 1080.4C1840.02 1079.66 1841.13 1084.64 1837.81 1085.38C1834.49 1086.12 1833.38 1081.15 1836.7 1080.4Z" fill="white" fill-opacity="0.04"/>
<path d="M1891.5 1115.19C1894.82 1114.45 1895.93 1119.43 1892.61 1120.17C1889.29 1120.91 1888.18 1115.93 1891.5 1115.19Z" fill="white" fill-opacity="0.04"/>
<path d="M1846.43 901.87C1849.74 901.127 1850.86 906.106 1847.54 906.845C1844.22 907.588 1843.11 902.614 1846.43 901.87Z" fill="white" fill-opacity="0.04"/>
<path d="M1730.07 773.764C1733.39 773.021 1734.51 778 1731.19 778.743C1727.87 779.482 1726.76 774.507 1730.07 773.764Z" fill="white" fill-opacity="0.04"/>
<path d="M1746.39 800.139C1749.71 799.395 1750.82 804.374 1747.5 805.118C1744.18 805.856 1743.07 800.882 1746.39 800.139Z" fill="white" fill-opacity="0.04"/>
<path d="M1713.45 815.356C1716.77 814.618 1717.88 819.592 1714.56 820.331C1711.25 821.074 1710.13 816.095 1713.45 815.356Z" fill="white" fill-opacity="0.04"/>
<path d="M1735.09 807.916C1738.41 807.177 1739.52 812.152 1736.2 812.89C1732.89 813.633 1731.77 808.654 1735.09 807.916Z" fill="white" fill-opacity="0.04"/>
<path d="M1711.46 783.128C1714.78 782.385 1715.89 787.359 1712.57 788.102C1709.25 788.846 1708.14 783.867 1711.46 783.128Z" fill="white" fill-opacity="0.04"/>
<path d="M1815.08 831.818C1818.4 831.075 1819.52 836.054 1816.2 836.792C1812.88 837.536 1811.77 832.561 1815.08 831.818Z" fill="white" fill-opacity="0.04"/>
<path d="M1811.85 881.529C1815.17 880.786 1816.28 885.765 1812.96 886.508C1809.65 887.247 1808.53 882.273 1811.85 881.529Z" fill="white" fill-opacity="0.04"/>
<path d="M1766.13 876.715C1769.44 875.977 1770.56 880.951 1767.24 881.695C1763.92 882.438 1762.81 877.459 1766.13 876.715Z" fill="white" fill-opacity="0.04"/>
<path d="M1820.01 877.101C1823.33 876.357 1824.45 881.336 1821.13 882.08C1817.81 882.818 1816.7 877.844 1820.01 877.101Z" fill="white" fill-opacity="0.04"/>
<path d="M1834.04 939.914C1837.35 939.171 1838.47 944.15 1835.15 944.889C1831.83 945.632 1830.72 940.658 1834.04 939.914Z" fill="white" fill-opacity="0.04"/>
<path d="M1851.7 1135.84C1855.02 1135.09 1856.13 1140.07 1852.81 1140.81C1849.5 1141.55 1848.38 1136.57 1851.7 1135.84Z" fill="white" fill-opacity="0.04"/>
<path d="M1726.57 920.828C1733.2 919.346 1735.43 929.299 1728.79 930.781C1722.16 932.268 1719.93 922.314 1726.57 920.828Z" fill="white" fill-opacity="0.04"/>
<path d="M1911.02 1015.46C1917.65 1013.98 1919.88 1023.93 1913.24 1025.42C1906.61 1026.9 1904.38 1016.94 1911.02 1015.46Z" fill="white" fill-opacity="0.04"/>
<path d="M1780.13 593.596C1786.77 592.115 1788.99 602.068 1782.36 603.55C1775.72 605.032 1773.5 595.079 1780.13 593.596Z" fill="white" fill-opacity="0.04"/>
<path d="M1765.84 658.19C1769.16 657.446 1770.27 662.425 1766.95 663.164C1763.64 663.907 1762.52 658.928 1765.84 658.19Z" fill="white" fill-opacity="0.04"/>
<path d="M1857.28 652.147C1860.6 651.409 1861.71 656.382 1858.4 657.125C1855.08 657.869 1853.96 652.891 1857.28 652.147Z" fill="white" fill-opacity="0.04"/>
<path d="M1823.3 798.213C1826.61 797.47 1827.73 802.449 1824.41 803.187C1821.09 803.931 1819.98 798.956 1823.3 798.213Z" fill="white" fill-opacity="0.04"/>
<path d="M1732.77 977.776C1736.09 977.037 1737.2 982.012 1733.88 982.755C1730.57 983.498 1729.45 978.519 1732.77 977.776Z" fill="white" fill-opacity="0.04"/>
<path d="M1787.58 1012.56C1790.9 1011.82 1792.01 1016.79 1788.69 1017.54C1785.38 1018.28 1784.26 1013.3 1787.58 1012.56Z" fill="white" fill-opacity="0.04"/>
<path d="M1742.51 799.254C1745.83 798.511 1746.94 803.49 1743.63 804.228C1740.31 804.972 1739.19 799.993 1742.51 799.254Z" fill="white" fill-opacity="0.04"/>
<path d="M1626.09 671.124C1629.41 670.38 1630.53 675.359 1627.21 676.102C1623.89 676.846 1622.78 671.867 1626.09 671.124Z" fill="white" fill-opacity="0.04"/>
<path d="M1642.52 697.527C1645.83 696.783 1646.95 701.763 1643.63 702.501C1640.31 703.244 1639.2 698.265 1642.52 697.527Z" fill="white" fill-opacity="0.04"/>
<path d="M1609.5 712.723C1612.81 711.98 1613.93 716.959 1610.61 717.702C1607.29 718.441 1606.18 713.467 1609.5 712.723Z" fill="white" fill-opacity="0.04"/>
<path d="M1631.14 705.271C1634.45 704.527 1635.57 709.506 1632.25 710.245C1628.93 710.988 1627.82 706.014 1631.14 705.271Z" fill="white" fill-opacity="0.04"/>
<path d="M1607.55 680.512C1610.86 679.768 1611.98 684.747 1608.66 685.486C1605.34 686.229 1604.23 681.25 1607.55 680.512Z" fill="white" fill-opacity="0.04"/>
<path d="M1711.17 729.19C1714.49 728.451 1715.6 733.425 1712.28 734.169C1708.96 734.907 1707.85 729.933 1711.17 729.19Z" fill="white" fill-opacity="0.04"/>
<path d="M1707.94 778.913C1711.26 778.17 1712.37 783.144 1709.05 783.887C1705.73 784.631 1704.62 779.652 1707.94 778.913Z" fill="white" fill-opacity="0.04"/>
<path d="M1662.2 774.102C1665.52 773.358 1666.63 778.337 1663.31 779.076C1660 779.819 1658.88 774.84 1662.2 774.102Z" fill="white" fill-opacity="0.04"/>
<path d="M1716.06 774.455C1719.38 773.712 1720.49 778.691 1717.17 779.43C1713.85 780.173 1712.74 775.199 1716.06 774.455Z" fill="white" fill-opacity="0.04"/>
<path d="M1730.12 837.298C1733.44 836.559 1734.55 841.534 1731.24 842.277C1727.92 843.016 1726.81 838.041 1730.12 837.298Z" fill="white" fill-opacity="0.04"/>
<path d="M1866.23 865.676C1869.55 864.933 1870.67 869.912 1867.35 870.651C1864.03 871.394 1862.92 866.42 1866.23 865.676Z" fill="white" fill-opacity="0.04"/>
<path d="M1850.75 886.101C1854.07 885.357 1855.18 890.332 1851.86 891.075C1848.54 891.818 1847.43 886.839 1850.75 886.101Z" fill="white" fill-opacity="0.04"/>
<path d="M1839.66 871.585C1842.98 870.847 1844.09 875.821 1840.77 876.564C1837.45 877.308 1836.34 872.329 1839.66 871.585Z" fill="white" fill-opacity="0.04"/>
<path d="M1826.49 941.173C1829.81 940.429 1830.92 945.404 1827.6 946.147C1824.28 946.89 1823.17 941.911 1826.49 941.173Z" fill="white" fill-opacity="0.04"/>
<path d="M1839.08 1055.95C1842.4 1055.2 1843.52 1060.18 1840.2 1060.92C1836.88 1061.66 1835.76 1056.69 1839.08 1055.95Z" fill="white" fill-opacity="0.04"/>
<path d="M1796.21 1062.88C1799.53 1062.13 1800.64 1067.11 1797.33 1067.85C1794.01 1068.59 1792.89 1063.62 1796.21 1062.88Z" fill="white" fill-opacity="0.04"/>
<path d="M1747.78 1033.22C1751.1 1032.48 1752.2 1037.46 1748.89 1038.2C1745.57 1038.94 1744.46 1033.96 1747.78 1033.22Z" fill="white" fill-opacity="0.04"/>
<path d="M1681.92 1106.73C1685.23 1105.98 1686.35 1110.96 1683.03 1111.71C1679.71 1112.44 1678.6 1107.47 1681.92 1106.73Z" fill="white" fill-opacity="0.04"/>
<path d="M1622.65 818.211C1629.29 816.729 1631.51 826.684 1624.87 828.166C1618.24 829.648 1616.02 819.693 1622.65 818.211Z" fill="white" fill-opacity="0.04"/>
<path d="M1863.04 987.857C1869.68 986.37 1871.9 996.324 1865.27 997.81C1858.63 999.292 1856.4 989.339 1863.04 987.857Z" fill="white" fill-opacity="0.04"/>
<path d="M1807.09 912.848C1813.73 911.366 1815.95 921.32 1809.32 922.802C1802.68 924.284 1800.46 914.33 1807.09 912.848Z" fill="white" fill-opacity="0.04"/>
<path d="M1727.05 1099.25C1733.69 1097.76 1735.91 1107.72 1729.28 1109.2C1722.64 1110.68 1720.42 1100.73 1727.05 1099.25Z" fill="white" fill-opacity="0.04"/>
</g>
<path d="M1717.49 301.256L1243.92 786.883L1242.32 785.316L1715.89 299.689L1717.49 301.256Z" fill="white" fill-opacity="0.13"/>
<path d="M1135.29 638.183L784.421 997.989L783.232 996.833L1134.11 637.033L1135.29 638.183Z" fill="white" fill-opacity="0.13"/>
<path d="M693.325 765.725L476.877 987.687L476.143 986.973L692.6 765.015L693.325 765.725Z" fill="white" fill-opacity="0.13"/>
<path d="M1647.87 645.457L1108.19 1198.89L1106.36 1197.11L1646.06 643.687L1647.87 645.457Z" fill="white" fill-opacity="0.13"/>
<path d="M1361.29 688.183L1010.42 1047.99L1009.23 1046.83L1360.11 687.033L1361.29 688.183Z" fill="white" fill-opacity="0.13"/>
<path d="M1251.37 375.012L1018.5 613.811L1017.71 613.043L1250.59 374.249L1251.37 375.012Z" fill="white" fill-opacity="0.13"/>
<defs>
<linearGradient id="paint0_linear_321_5" x1="960" y1="0" x2="960" y2="3245" gradientUnits="userSpaceOnUse">
<stop stop-color="#001C22"/>
<stop offset="1" stop-color="#00576A"/>
</linearGradient>
<clipPath id="clip0_321_5">
<rect width="859.146" height="859.146" fill="white" transform="translate(-175 978.7) rotate(-65.4857)"/>
</clipPath>
<clipPath id="clip1_321_5">
<rect width="859.146" height="859.146" fill="white" transform="translate(724.405 125) rotate(18.6262)"/>
</clipPath>
<clipPath id="clip2_321_5">
<rect width="859.146" height="859.146" fill="white" transform="translate(305.214 1009.55) rotate(-21.9633)"/>
</clipPath>
<clipPath id="clip3_321_5">
<rect width="859.146" height="859.146" fill="white" transform="translate(1465.44 1388.11) rotate(-101.579)"/>
</clipPath>
</defs>
</svg>
